<?xml version="1.0" standalone="no"?>
<!DOCTYPE svg PUBLIC "-//W3C//DTD SVG 1.1//EN" "http://www.w3.org/Graphics/SVG/1.1/DTD/svg11.dtd" >
<svg xmlns="http://www.w3.org/2000/svg">
<metadata>
This is a custom SVG webfont generated by Fontspring.
Designer    : Filippo Salmina
Foundry     : Filippo Salmina
Foundry URL : www.mimix.ch
</metadata>
<defs>
<font id="webfont" horiz-adv-x="580" >
<font-face units-per-em="1000" ascent="750" descent="-250" />
<missing-glyph horiz-adv-x="300" />
<glyph unicode=" "  horiz-adv-x="300" />
<glyph unicode="&#x09;" horiz-adv-x="300" />
<glyph unicode="&#xa0;" horiz-adv-x="300" />
<glyph unicode="!" horiz-adv-x="347" d="M142 296l38 326q4 48 -32 48l-49 -8l-9 26l103 31q28 9 48 9q29 0 42.5 -23.5t11.5 -53.5l-38 -327q-4 -47 32 -47l49 7l9 -26l-103 -31q-28 -9 -51 -9q-29 0 -41.5 23.5t-9.5 54.5zM209 -14q-34 0 -57 23t-23 57q0 33 23 56.5t57 23.5q33 0 56.5 -23.5t23.5 -56.5 q0 -34 -23.5 -57t-56.5 -23z" />
<glyph unicode="&#x22;" horiz-adv-x="508" d="M119 408l-28 307q-1 5 3 9t9 4h105q6 0 9.5 -4t2.5 -9l-68 -307h-33zM344 408l-28 307q-1 5 3 9t9 4h105q5 0 9 -4t3 -9l-68 -307h-33z" />
<glyph unicode="#" horiz-adv-x="757" d="M110 -16l-1 30q22 4 35.5 26t15.5 53l6 95h-130l1 10q1 10 3 22l1 11h128l17 231h-129l1 10q0 10 2 22l2 11h127l5 64q1 5 2.5 24.5t2.5 23.5t4.5 19.5t7.5 19.5t12 15t18.5 14.5t25.5 10t35 10t45 5.5l1 -30q-44 -7 -49 -79l-7 -97h193l4 64q1 5 2.5 22.5t2 22t3.5 18.5 t6 18t9 14.5t13.5 14t18.5 10.5t25 10t32 6.5t41 5.5l1 -30q-44 -7 -49 -79l-7 -97h135l-5 -43h-133l-17 -231h134l-5 -43h-132l-6 -94q-3 -53 -31.5 -77.5t-119.5 -32.5l-1 30q22 4 34.5 25.5t14.5 53.5l6 95h-192l-6 -94q-3 -52 -32.5 -77t-120.5 -33zM272 231h192l17 231 h-192z" />
<glyph unicode="$" d="M190 -117l7 107q-79 13 -117 55t-38 100q0 29 18 48.5t46 19.5t46.5 -19.5t18.5 -46.5q0 -21 -13 -36t-26 -23t-13 -12q0 -18 44.5 -35.5t106.5 -17.5q59 0 107.5 36.5t48.5 84.5q0 38 -37.5 72.5t-91 63.5l-106.5 60t-90.5 75t-37.5 96q0 72 53.5 122t133.5 66l7 93 l43 -3l-6 -84q7 1 21 1q13 0 35 -2l7 88l43 -3l-6 -93q71 -18 107 -65.5t36 -99.5q0 -30 -18 -49t-46 -19t-46.5 19.5t-18.5 46.5q0 20 13 34.5t25.5 23t12.5 12.5q0 21 -36 44t-95 23q-63 0 -112.5 -31t-49.5 -81q0 -40 37.5 -75t91 -63.5l106.5 -59t90.5 -74.5t37.5 -96 q0 -83 -52.5 -130.5t-135.5 -63.5l-8 -112l-43 3l6 104q-22 -2 -32 -2q-16 0 -24 1l-7 -106z" />
<glyph unicode="%" horiz-adv-x="908" d="M707 -9q-75 0 -119 54t-44 138q0 85 42.5 150t123.5 65q78 0 119.5 -55t41.5 -140t-41.5 -148.5t-122.5 -63.5zM701 14q17 0 30.5 19t20.5 48t10.5 53t4.5 45q0 1 1 27t1 27q2 51 -9.5 97t-43.5 46q-33 0 -50 -54t-19 -114q0 -1 -1 -25.5t-1 -26.5q-3 -141 56 -142z M273 311q-75 0 -119 54t-44 138q0 85 42.5 150t123.5 65q78 0 119.5 -55t41.5 -140t-41.5 -148.5t-122.5 -63.5zM267 334q17 0 30.5 19t20.5 48t10.5 53t4.5 45q0 1 1 27t1 27q2 51 -9.5 97t-43.5 46q-33 0 -50 -54t-19 -114q0 -1 -1 -25.5t-1 -26.5q-3 -141 56 -142z M179 20l8 28q50 -5 80 42l359 546q2 3 10 16t11.5 18t11.5 14.5t13.5 13.5t14.5 7.5t18 3.5q10 0 23 -5l67 -25l-7 -27q-26 3 -42.5 -3t-32.5 -30l-369 -555q-47 -69 -88 -69q-9 0 -18 3z" />
<glyph unicode="&#x26;" horiz-adv-x="642" d="M261 357v2q-94 8 -136.5 53t-42.5 106q0 81 77.5 134.5t176.5 53.5q84 0 151 -47t67 -128q0 -28 -17.5 -51.5t-47.5 -23.5q-22 0 -42 17t-20 44q0 31 20 46l7 5q8 5 13.5 11t5.5 13q0 22 -29 49t-86 27q-60 0 -109.5 -42t-49.5 -96q0 -23 1 -38t9 -39t22 -38.5 t42.5 -26.5t69.5 -13l3 -34q-26 0 -54.5 -9t-56.5 -28t-46 -53.5t-18 -79.5q0 -60 43 -106t96 -46q62 0 103 43t41 117q0 30 -37 157q-10 36 13.5 55t62.5 19q19 0 36 -5q65 -22 98 -32l-12 -26q-36 8 -48 8q-22 0 -32.5 -10t-6.5 -28q2 -7 11 -30.5t16 -49.5t7 -49 q0 -87 -68.5 -143.5t-185.5 -58.5q-97 -2 -179.5 56.5t-82.5 138.5q0 78 62 124.5t153 51.5z" />
<glyph unicode="'" horiz-adv-x="285" d="M119 408l-28 307q-1 5 3 9t9 4h105q6 0 9.5 -4t2.5 -9l-68 -307h-33z" />
<glyph unicode="(" horiz-adv-x="322" d="M34 -133l44 634q6 90 21.5 140.5t44.5 81t87 63.5l14 -18q-44 -60 -48 -124l-53 -776q-1 -24 10.5 -36t28.5 -12q30 0 63 30l22 -21q-36 -37 -77.5 -59.5t-75.5 -22.5q-38 0 -61.5 30.5t-19.5 89.5z" />
<glyph unicode=")" horiz-adv-x="323" d="M96 -252l-14 18q44 60 48 124l52 764q1 24 -10 36t-28 12q-31 0 -64 -30l-22 21q36 37 77.5 59.5t75.5 22.5q38 0 61.5 -30.5t19.5 -89.5l-43 -622q-6 -90 -21.5 -140.5t-44.5 -81t-87 -63.5z" />
<glyph unicode="*" horiz-adv-x="514" d="M259 496l-1 1v1q-128 3 -154 11q-16 6 -20 13q-7 11 5 49q12 39 25 43q8 2 24 -2q26 -8 130 -81l1 1h1q-37 122 -37 149q0 15 6 23q9 11 48 11t48 -11q6 -8 6 -23q0 -12 -9.5 -49.5t-18.5 -68.5l-9 -31h1l1 -1q104 72 130 80q16 5 24 2q13 -4 25 -43q11 -37 4 -49 q-6 -7 -20 -13q-12 -4 -51 -6q-38 -4 -70 -4h-33l-1 -1v-1q102 -77 118 -99q9 -12 9 -23q0 -13 -32 -36.5t-46 -19.5q-9 3 -18 16q-7 9 -21 45q-16 36 -26 67l-10 31h-2q-43 -121 -58 -143q-9 -12 -19 -15q-15 -4 -46 19t-32 37q0 9 9 23q7 10 37 34l56 44z" />
<glyph unicode="+" d="M46 283h203l11 159q2 27 10.5 39.5t29.5 12.5q5 0 16 -4t20 -8l9 -3l-14 -196h161q18 0 24.5 -0.5t16.5 -3.5t13 -11.5t2 -23.5l-14 -37h-208l-12 -173q-2 -28 -9.5 -40.5t-27.5 -12.5q-5 0 -17 4t-22 8l-9 4l14 210h-155q-18 0 -24.5 0.5t-16.5 3.5t-13 11.5t-2 23.5z " />
<glyph unicode="," horiz-adv-x="265" d="M86 -147l-16 25q32 21 49 45t17 40q0 32 -37 55q-26 16 -26 48q0 34 21.5 57t54.5 23q34 0 57 -26t23 -66q0 -63 -34.5 -117t-108.5 -84z" />
<glyph unicode="-" horiz-adv-x="413" d="M51 254q0 9 2 20t8 26.5t9 22.5t13 28.5t12 25.5l26 -11q-5 -16 -6 -28q-1 -20 12.5 -28t33.5 -8h128q73 0 73 -49q0 -13 -5.5 -31t-11 -31.5t-15 -34t-12.5 -27.5l-26 11q5 16 6 28q1 20 -12.5 28t-33.5 8h-128q-73 0 -73 50z" />
<glyph unicode="." horiz-adv-x="265" d="M150 -14q-34 0 -57 23t-23 57q0 33 23 56.5t57 23.5q33 0 56.5 -23.5t23.5 -56.5q0 -34 -23.5 -57t-56.5 -23z" />
<glyph unicode="/" horiz-adv-x="558" d="M78 20l8 30q25 -2 39.5 6t24.5 36l204 537q14 37 31 55t42 18q15 0 29 -5l68 -25l-8 -29q-24 3 -38.5 -6t-25.5 -37l-204 -536q-16 -40 -30.5 -57.5t-38.5 -17.5q-17 0 -33 6z" />
<glyph unicode="0" horiz-adv-x="646" d="M317 -16q-69 0 -120 26.5t-80 74.5t-43 107t-14 131q0 70 12.5 133t41 122t83 94t130.5 35q69 0 120.5 -27t81.5 -74.5t44 -106.5t14 -130q0 -55 -7 -106t-26 -103t-48.5 -90t-78 -62t-110.5 -24zM311 18q153 7 156 373v12q0 271 -134 271q-154 0 -154 -373v-12 q0 -24 0.5 -43.5t3.5 -48t8 -50.5t15 -46.5t23.5 -41t34.5 -28t47 -13.5z" />
<glyph unicode="1" horiz-adv-x="405" d="M169 64l37 496h-2q-93 -86 -181 -141l-23 33q50 35 128.5 111t121.5 130h77l-43 -601q-4 -47 32 -47l49 7l9 -26l-103 -31q-33 -10 -51 -9q-29 0 -41.5 23.5t-9.5 54.5z" />
<glyph unicode="2" horiz-adv-x="560" d="M60 0l-15 18q38 81 101 167t115 141.5t90.5 110t38.5 86.5q0 67 -34.5 106t-84.5 39q-53 0 -93.5 -24.5t-40.5 -44.5q0 -7 13 -12q16 -7 28 -22.5t12 -35.5q0 -27 -18.5 -46.5t-46.5 -19.5t-46 19t-18 49q0 26 14 55.5t39.5 56.5t69 45t96.5 18q98 0 159 -46t61 -129 q0 -45 -18 -80.5t-54.5 -69t-78.5 -66t-103 -89t-115 -121.5l1 -2h242q61 0 87 90l24 -6l-6 -75q-5 -60 -14 -77q-19 -35 -86 -35h-319z" />
<glyph unicode="3" horiz-adv-x="547" d="M32 121l24 13q68 -82 171 -82q52 0 89.5 39.5t37.5 102.5q0 78 -44.5 112.5t-102.5 34.5l3 34q51 1 84.5 14t49.5 37t21.5 49t5.5 59q0 60 -34 97t-92 37q-53 0 -90 -24.5t-37 -44.5q0 -7 13 -12q16 -7 28 -22.5t12 -35.5q0 -27 -18.5 -46.5t-46.5 -19.5t-46 20.5 t-18 50.5q0 58 61.5 115t163.5 57q96 0 160 -52.5t64 -135.5q0 -59 -51.5 -105t-147.5 -54v-2q87 -5 134.5 -50t50.5 -126q3 -79 -63 -135.5t-161 -56.5q-67 0 -129 29.5t-92 102.5z" />
<glyph unicode="4" horiz-adv-x="517" d="M21 185l158 415q18 48 -12 48l-49 -8l-9 26l103 32q21 6 40 6q35 0 45.5 -27t-3.5 -58l-158 -416h176l9 123l115 19l-19 -253q-4 -47 32 -47l49 7l9 -26l-103 -31q-34 -9 -51 -9q-29 0 -41 23.5t-10 54.5l7 104h-273q-19 0 -15 17z" />
<glyph unicode="5" horiz-adv-x="541" d="M37 118l22 12q32 -34 74.5 -54t78.5 -20q65 0 110.5 50.5t45.5 124.5q0 91 -65.5 135t-151.5 44q-32 0 -86 -10l21 293h293q61 0 87 91l24 -6l-6 -75q-5 -60 -14 -77q-19 -35 -86 -35h-265l-11 -147q20 6 64.5 10.5t64.5 4.5q109 0 176.5 -60t67.5 -179q0 -96 -62.5 -164 t-156.5 -68q-164 0 -225 130z" />
<glyph unicode="6" horiz-adv-x="585" d="M187 377l2 -1q50 59 160 59q30 0 59 -9.5t58.5 -32t47.5 -67.5t18 -107q0 -36 -10.5 -72.5t-35 -75t-74.5 -62.5t-120 -24q-109 0 -171 84t-62 224q0 103 35.5 195.5t112 155.5t178.5 63q50 0 100 -14l-7 -28q-21 3 -42 3q-104 0 -172.5 -75.5t-76.5 -215.5zM297 21 q61 0 91.5 63t30.5 147q0 69 -32 108.5t-85 39.5q-50 0 -115 -29q-3 -7 -5 -30.5t-2 -43.5l-1 -20q0 -41 5 -78t17 -74.5t36.5 -60t59.5 -22.5z" />
<glyph unicode="7" horiz-adv-x="483" d="M325 26l-103 -31q-27 -9 -51 -9q-51 0 -51 78q0 48 8 95t19.5 84t32.5 77.5t37 67.5t43 62t42 52l42 47.5l35 39.5v2h-258q-51 0 -69 17.5t-18 51.5q0 13 2 43l5 75l25 6q12 -91 74 -91h314l-6 -90q-95 -85 -154 -242t-59 -269q0 -47 32 -47l49 7z" />
<glyph unicode="8" horiz-adv-x="591" d="M376 370v-2q163 -83 163 -209q0 -50 -23.5 -86.5t-60.5 -54t-72 -25t-69 -7.5q-110 0 -174 52t-64 126q0 61 47 112.5t139 65.5v2q-78 40 -127 92.5t-49 108.5q0 68 55 114.5t171 46.5q110 0 167 -47.5t57 -116.5q0 -56 -41 -103t-119 -69zM286 322q-43 -27 -71.5 -65.5 t-28.5 -80.5q0 -71 36.5 -114t84.5 -43q45 0 80 38t35 102q0 43 -35 81.5t-99 81.5h-2zM350 387q79 79 79 164q0 52 -33 87t-84 35q-110 0 -110 -118q0 -49 38 -87.5t108 -80.5h2z" />
<glyph unicode="9" horiz-adv-x="591" d="M60 121l24 12q77 -83 162 -83q89 0 135 78.5t46 190.5q-80 -52 -179 -52q-81 0 -133.5 52.5t-52.5 164.5q0 35 11.5 71t37.5 71.5t77 58t120 22.5q108 0 172.5 -92.5t64.5 -215.5q0 -186 -68.5 -297.5t-188.5 -111.5q-65 0 -130 30.5t-98 100.5zM428 351q1 11 1 33 q0 121 -30.5 205t-93.5 84q-68 0 -101 -60.5t-33 -144.5q0 -68 35 -107.5t89 -39.5q66 0 133 30z" />
<glyph unicode=":" horiz-adv-x="300" d="M168 -14q-34 0 -57 23t-23 57q0 33 23 56.5t57 23.5q33 0 56.5 -23.5t23.5 -56.5q0 -34 -23.5 -57t-56.5 -23zM196 332q-34 0 -57 23t-23 57q0 33 23 56.5t57 23.5q33 0 56.5 -23.5t23.5 -56.5q0 -34 -23.5 -57t-56.5 -23z" />
<glyph unicode=";" horiz-adv-x="298" d="M189 307q-34 0 -57 23t-23 57q0 33 23 56.5t57 23.5q33 0 56.5 -23.5t23.5 -56.5q0 -34 -23.5 -57t-56.5 -23zM106 -147l-16 25q32 21 49 45t17 40q0 32 -37 55q-26 16 -26 48q0 34 21.5 57t54.5 23q34 0 57 -26t23 -66q0 -63 -34.5 -117t-108.5 -84z" />
<glyph unicode="&#x3c;" d="M380 -43l-246 260q-14 14 -14 25q0 12 18 29l234 220q29 27 43 27t25 -17l20 -33l-244 -228l186 -197q27 -29 27 -45q0 -13 -18 -23z" />
<glyph unicode="=" d="M38 163h446q18 0 24.5 -0.5t16.5 -3.5t13 -11.5t2 -23.5l-14 -37h-446q-18 0 -24.5 0.5t-16.5 3.5t-13 11.5t-2 23.5zM53 383h446q18 0 24.5 -0.5t16.5 -3.5t13 -11.5t2 -23.5l-14 -37h-446q-18 0 -24.5 0.5t-16.5 3.5t-13 11.5t-2 23.5z" />
<glyph unicode="&#x3e;" d="M439 210l-266 -255l-30 22q-15 11 -15 26q0 14 29 41l199 193l-228 235l23 31q12 16 25 16q12 0 42 -30l218 -226q16 -17 16 -29q0 -11 -13 -24z" />
<glyph unicode="?" horiz-adv-x="489" d="M206 190l-24 5q0 49 25 102.5t54.5 93t54.5 87t25 86.5q0 50 -35 87t-91 37q-53 0 -89 -24.5t-36 -44.5q0 -7 13 -12q16 -6 27 -22t11 -36q0 -27 -18.5 -46.5t-46.5 -19.5t-46 19t-18 49q0 59 61.5 117t163.5 58q97 0 160.5 -47.5t63.5 -130.5q0 -41 -20 -74.5t-52 -60.5 l-66 -55t-67 -71.5t-50 -96.5zM200 -14q-34 0 -57 23t-23 57q0 33 23 56.5t57 23.5q33 0 56.5 -23.5t23.5 -56.5q0 -34 -23.5 -57t-56.5 -23z" />
<glyph unicode="@" horiz-adv-x="958" d="M453 -202l-11 -31q-174 23 -288 158.5t-114 308.5q0 104 40.5 196t107 154.5t151.5 98.5t174 36q109 0 199 -46.5t146 -139t56 -214.5q0 -126 -78.5 -230t-181.5 -104q-57 0 -76 57h-2q-64 -57 -118 -57q-85 0 -136.5 70t-51.5 163q0 116 67 192t143 76q59 0 116 -54h2 l17 37h93q-25 -358 -25 -363q0 -48 38 -48q35 0 63.5 29t43.5 71.5t22.5 82t7.5 69.5q0 141 -100.5 240.5t-226.5 99.5q-93 0 -179 -49t-143.5 -145t-57.5 -215q0 -69 14 -131t46.5 -124t94 -111t147.5 -77zM571 75q-1 9 -1 30q0 2 3.5 59.5l8 130.5t6.5 102q-39 39 -76 39 q-50 0 -87 -63.5t-37 -158.5q0 -78 29 -127t71 -49q43 0 83 37z" />
<glyph unicode="A" horiz-adv-x="645" d="M189 287h235l12 152q19 234 -105 234q-114 0 -131 -231zM31 -93l-14 18q41 60 45 124l26 381q10 137 73 206.5t171 69.5q232 0 216 -283q-13 -160 -25 -331q-4 -47 32 -47l49 7l9 -26l-103 -31q-34 -9 -51 -9q-29 0 -41.5 23.5t-9.5 54.5l13 183h-234l-4 -56 q-10 -130 -39 -183.5t-113 -100.5z" />
<glyph unicode="B" horiz-adv-x="645" d="M81 0l43 573q2 26 -12.5 39.5t-42.5 10.5l-7 22q115 62 247 62q128 0 205.5 -49t77.5 -147q0 -70 -60 -110.5t-146 -45.5v-2q38 -6 72 -17.5t67 -31.5t52.5 -52.5t19.5 -73.5q0 -89 -70 -141t-168 -52q-86 0 -169 58l-30 -43h-79zM301 339l3 30q78 0 125 43t47 100 q0 63 -47.5 112t-127.5 49q-56 0 -88 -12v-2q3 -2 7.5 -7t11.5 -20.5t6 -33.5l-37 -519q72 -52 119 -52q62 0 107.5 42.5t45.5 108.5t-58.5 113.5t-113.5 47.5z" />
<glyph unicode="C" horiz-adv-x="622" d="M551 158l22 -15q-50 -78 -115.5 -116.5t-133.5 -38.5q-130 0 -204.5 99.5t-74.5 249.5q0 71 18 135t54 117.5t98 85t142 31.5q109 0 170 -55t61 -114q0 -30 -18 -51t-46 -21t-46.5 19.5t-18.5 46.5q0 20 12.5 36.5t26.5 19.5q12 3 12 14q0 21 -36 44t-95 23 q-72 0 -122 -51t-71.5 -123t-21.5 -155q0 -69 20 -130.5t64.5 -104t104.5 -42.5q46 0 99 25t99 71z" />
<glyph unicode="D" horiz-adv-x="686" d="M81 0l42 573q2 26 -12.5 39.5t-42.5 10.5l-7 22q141 62 239 62q169 0 255 -92.5t86 -255.5q0 -68 -16.5 -131t-50.5 -119t-95 -90t-140 -34q-41 0 -73.5 14t-75.5 44l-27 -43h-82zM237 602l-36 -520q55 -48 110 -48q46 0 83 23.5t59 60t37 83t20.5 88.5t5.5 81 q0 77 -20 137t-53.5 94.5t-72 51.5t-79.5 17q-39 0 -76 -9v-2q25 -20 22 -57z" />
<glyph unicode="E" horiz-adv-x="596" d="M40 -4l-16 30q1 1 8.5 4t10.5 4.5t10 5.5t10.5 7.5t9 10t8 13t5 15.5t3.5 20l35 480q1 12 -0.5 22t-6 18t-8.5 13t-12 10t-11.5 7t-12.5 5.5t-10 4.5l16 30q18 -9 67.5 -18.5t87.5 -9.5q48 0 124 17t135 17q38 0 60.5 -24t22.5 -61q0 -24 -19.5 -43.5t-46.5 -19.5 q-22 0 -41 16t-19 39q0 16 7 27.5t7 16.5q0 10 -12 10q-2 0 -86 -18t-138 -14v-2q1 -1 3 -4t4 -17.5t1 -35.5l-15 -206h98l6 76q1 24 23 24h58q24 0 22 -23l-15 -191q-2 -26 -26 -26h-52q-25 0 -23 25l5 76h-99l-17 -207q-4 -47 -12 -57v-2q60 4 153.5 -15.5t94.5 -19.5 q12 0 12 11q0 5 -7 16t-7 27q0 23 19 39t41 16q27 0 46.5 -19.5t19.5 -43.5q0 -35 -25.5 -60t-57.5 -25q-58 0 -141 18.5t-140 18.5q-101 0 -157 -28z" />
<glyph unicode="F" horiz-adv-x="566" d="M87 62l38 524q1 12 -0.5 22t-6 18t-8.5 13t-12 10t-11.5 7t-12.5 5.5t-10 4.5l16 30q57 -27 151 -27q51 0 130 18t132 18q37 0 61 -25t24 -62q0 -25 -20 -44.5t-47 -19.5q-22 0 -41.5 16t-19.5 40q0 16 7 27t7 17q0 11 -12 11q-5 0 -84 -18t-139 -16v-2q13 -21 6 -86 l-13 -176h98l6 75q1 24 23 24h58q23 0 21 -26l-14 -188q-2 -26 -26 -26h-52q-25 0 -23 25l5 76h-99l-17 -237q-4 -47 32 -47q11 0 46 7l9 -26l-103 -31q-28 -9 -48 -9q-29 0 -41.5 23.5t-9.5 54.5z" />
<glyph unicode="G" horiz-adv-x="652" d="M488 0l-24 49q-74 -61 -145 -61q-130 0 -202 95t-72 244q0 56 11 109.5t36 102.5t61 86t89.5 59t118.5 22q109 0 170 -55t61 -114q0 -30 -18 -51t-46 -21t-46.5 19.5t-18.5 46.5q0 22 14 38t29 20q8 2 8 12q0 21 -36 44t-95 23q-73 0 -124.5 -53.5t-73 -128t-21.5 -157.5 q0 -52 10 -101t29.5 -91.5t54.5 -68t80 -25.5q56 0 127 52l9 147q2 48 -32 48l-49 -8l-9 26l103 32q29 8 39 8q28 0 40 -23t10 -54l-20 -271h-68z" />
<glyph unicode="H" horiz-adv-x="678" d="M81 0l43 600q4 48 -32 48l-49 -8l-9 26l103 31q29 9 48 9q29 0 41.5 -23.5t9.5 -53.5l-20 -263h244l10 135q10 131 39.5 184.5t113.5 100.5l14 -18q-40 -60 -45 -124l-39 -552q-4 -47 32 -47l49 7l9 -26l-103 -31q-28 -9 -48 -9q-29 0 -43 24t-11 54l20 264h-244 l-21 -328h-112z" />
<glyph unicode="I" horiz-adv-x="323" d="M86 64l40 536q4 48 -32 48l-49 -8l-9 26l103 31q28 9 48 9q29 0 42.5 -23.5t11.5 -53.5l-40 -537q-4 -47 32 -47l49 7l9 -26l-103 -31q-28 -9 -51 -9q-29 0 -41.5 23.5t-9.5 54.5z" />
<glyph unicode="J" horiz-adv-x="284" d="M34 -229l-15 17q51 61 62 196l44 616q4 48 -32 48l-49 -8l-9 26l101 32q28 8 50 8q29 0 42.5 -23.5t11.5 -53.5l-29 -405q-12 -179 -51 -292.5t-126 -160.5z" />
<glyph unicode="K" horiz-adv-x="644" d="M81 0l44 600q4 48 -32 48l-49 -8l-9 26l103 31q28 9 51 9q28 0 40.5 -24t10.5 -53l-47 -629h-112zM336 101l-111 240q14 39 33 80.5t51 94.5t66 93.5t79.5 68.5t90.5 28q34 0 58.5 -18.5t26.5 -53.5q-2 -29 -19.5 -48.5t-42.5 -19.5q-31 0 -47.5 19t-16.5 48q0 1 0.5 4 t0.5 4q0 15 -12 15q-25 0 -96 -88.5t-91 -150.5l142 -286q37 -75 84 -75q25 0 60 29l21 -20q-71 -79 -136 -79q-40 0 -77 29t-64 86z" />
<glyph unicode="L" horiz-adv-x="541" d="M33 -3l-16 30q44 25 70 79t44 168t33 326q4 48 -32 48l-49 -8l-9 26l103 31q29 9 51 9q29 0 41.5 -24.5t10.5 -52.5q-12 -208 -31 -332.5t-35 -164t-42 -68.5v-2q36 7 130.5 -14t103.5 -21q10 0 10 12q0 4 -6 15.5t-6 22.5q0 24 20 40t43 16q28 0 48.5 -19.5t20.5 -44.5 q0 -35 -26.5 -58t-59.5 -23q-48 0 -142.5 17.5t-146.5 17.5q-69 0 -128 -26z" />
<glyph unicode="M" horiz-adv-x="1000" d="M401 0l39 549q4 59 -25 59t-43 -42l-137 -412q-27 -80 -63.5 -124t-95.5 -44q-29 0 -50 19.5t-21 53.5q0 26 18.5 44t46.5 18q49 0 56 -49q2 -12 11 -12q5 0 11.5 7t12.5 19.5l12 26t12 30.5l10.5 29t8.5 25t5 15l126 383q38 112 126 112q54 0 76.5 -40t18.5 -98 l-29 -369h2l166 417q43 91 125 91q98 0 89 -142l-34 -468q-2 -43 31 -43q16 0 36 9.5t29 19.5l22 -19q-86 -80 -150 -80q-37 0 -61 31.5t-19 85.5l31 445v21.5t-7.5 24t-21.5 11.5q-26 0 -40 -34l-229 -570h-95z" />
<glyph unicode="N" horiz-adv-x="682" d="M83 0l42 600q4 48 -32 48l-49 -8l-9 26l103 31q28 9 48 9q29 0 43 -24t12 -53l-32 -429h2l166 417q18 45 52 68t73 23q98 0 89 -142l-34 -468q-2 -43 31 -43q16 0 36 9.5t29 19.5l22 -19q-86 -80 -150 -80q-37 0 -61 31.5t-19 85.5l31 445q2 17 -4.5 37t-26.5 20 q-24 0 -38 -34l-229 -570h-95z" />
<glyph unicode="O" horiz-adv-x="664" d="M317 -15q-122 0 -197 97t-75 248q0 51 9.5 102t32 101.5t55 88.5t83 61.5t111.5 23.5q135 0 209 -99.5t74 -245.5q0 -45 -6.5 -90.5t-27 -99t-52 -93.5t-87.5 -67t-129 -27zM165 316q0 -34 2.5 -66.5t12.5 -76t25.5 -75t45 -54t68.5 -22.5q47 0 82.5 31.5t55 83t30 101.5 t13.5 103l1 43q0 42 -6.5 86t-22 93t-49.5 79.5t-81 30.5q-46 0 -81 -30.5t-54 -81.5t-28.5 -101.5t-12.5 -105.5z" />
<glyph unicode="P" horiz-adv-x="600" d="M86 64l39 519q2 26 -12.5 39t-42.5 10l-7 23q118 52 238 52q136 0 209 -68t73 -164t-70.5 -163.5t-163.5 -67.5q-68 0 -134 30l-14 -182q-4 -47 32 -47l46 7l9 -26l-103 -31q-31 -9 -48 -9q-29 0 -41.5 23.5t-9.5 54.5zM239 600l-22 -295q41 -16 76 -16q80 0 129 54.5 t49 135.5q0 78 -48 136t-131 58q-45 0 -77 -8v-2q9 -4 17.5 -21.5t6.5 -41.5z" />
<glyph unicode="Q" horiz-adv-x="664" d="M245 -35v30q-92 27 -146 117.5t-54 217.5q0 51 9.5 102t32 101.5t55 88.5t83 61.5t111.5 23.5q135 0 209 -99.5t74 -245.5q0 -44 -6 -87.5t-25 -95t-48 -91t-80.5 -68t-117.5 -33.5v-2q52 -13 110.5 -47t71.5 -34q11 0 11 14q0 4 -3 14.5t-3 14.5q0 23 18.5 39.5 t42.5 16.5q25 0 43 -15t18 -42q0 -82 -92 -82q-40 0 -79.5 16t-68.5 34.5t-73.5 34.5t-92.5 16zM165 316q0 -34 2.5 -66.5t12.5 -76t25.5 -75t45 -54t68.5 -22.5q47 0 82.5 31.5t55 83t30 101.5t13.5 103l1 43q0 42 -6.5 86t-22 93t-49.5 79.5t-81 30.5q-46 0 -81 -30.5 t-54 -81.5t-28.5 -101.5t-12.5 -105.5z" />
<glyph unicode="R" horiz-adv-x="630" d="M82 0l42 576q3 36 -13.5 48t-41.5 8l-9 24q121 52 231 52q139 0 212.5 -57.5t73.5 -163.5q0 -82 -71.5 -133t-160.5 -51l99 -180q35 -65 80 -65q23 0 57 25l21 -18q-32 -39 -68.5 -60t-67.5 -21q-74 0 -133 119l-97 193l2 24q82 0 151.5 46t69.5 123q0 89 -52 136.5 t-138 47.5q-27 0 -56 -6v-2q9 -4 17.5 -23t7.5 -41l-44 -601h-112z" />
<glyph unicode="S" horiz-adv-x="564" d="M33 152q0 29 19.5 49t48.5 20q28 0 46.5 -19.5t18.5 -46.5q0 -20 -12 -36t-28 -23q-9 -3 -9 -11q0 -18 42.5 -40t101.5 -22q63 0 110.5 35.5t47.5 90.5q0 41 -37 75.5t-89.5 61l-105 55t-89.5 72.5t-37 98q0 87 74 141t173 54q102 0 163.5 -58t61.5 -117q0 -30 -18 -49 t-46 -19t-46.5 19.5t-18.5 46.5q0 20 11.5 35.5t27.5 22.5q12 4 12 12q0 20 -37.5 43.5t-96.5 23.5q-62 0 -109 -31t-47 -81q0 -31 20 -58t51.5 -47t70 -39.5l77 -40.5t70 -45t51.5 -58t20 -75q0 -57 -22 -98.5t-60.5 -64t-82 -33t-95.5 -10.5q-105 -1 -168.5 49.5 t-63.5 117.5z" />
<glyph unicode="T" horiz-adv-x="591" d="M199 64l38 516q-78 -21 -135 -21q-36 0 -65.5 23t-29.5 60q0 24 19.5 43.5t46.5 19.5q22 0 41 -15.5t19 -38.5q0 -10 -6 -25q-6 -12 -6 -19q0 -11 11 -11q60 0 178.5 52t178.5 52q36 0 62.5 -23.5t26.5 -60.5q0 -24 -19.5 -43.5t-46.5 -19.5q-22 0 -41 16t-19 39 q0 12 6 24t6 19q-1 11 -11 11q-44 0 -101 -34l-38 -536q0 -47 32 -47l48 7l9 -26l-103 -31q-28 -9 -51 -9q-50 0 -50 78z" />
<glyph unicode="U" horiz-adv-x="639" d="M98 224l26 376q2 48 -32 48l-49 -8l-9 26l103 31q32 9 48 9q29 0 42.5 -23.5t11.5 -53.5l-29 -403q-4 -30 0 -66t13 -67t32.5 -51.5t57.5 -20.5t58 19.5t36 56t17.5 66t8.5 70.5l16 214q6 116 20 174t43 93.5t92 71.5l15 -18q-1 0 -11 -17t-21.5 -47.5t-13.5 -59.5 l-30 -423q-9 -117 -64 -176t-172 -59q-98 0 -157 65.5t-52 172.5z" />
<glyph unicode="V" horiz-adv-x="630" d="M90 125l36 475q4 48 -32 48l-49 -8l-9 26l103 31q29 9 51 9q29 0 41 -23.5t10 -53.5l-34 -484q-1 -10 0.5 -22t8.5 -24.5t19 -12.5q25 0 40 43l140 415q27 84 61.5 124.5t95.5 40.5q28 0 49.5 -19.5t21.5 -52.5q0 -25 -18.5 -43.5t-45.5 -18.5q-48 0 -55 49q-1 10 -11 10 q-5 0 -10 -5t-10.5 -15.5t-10 -20t-11 -26.5t-9.5 -26.5t-9.5 -28.5t-8.5 -24l-133 -388q-39 -113 -124 -113q-53 0 -77 40.5t-20 97.5z" />
<glyph unicode="W" horiz-adv-x="983" d="M93 128l33 472q4 48 -32 48l-49 -8l-9 26l103 31q29 9 51 9q29 0 41 -23.5t10 -53.5l-33 -484q-1 -25 7.5 -41.5t22.5 -16.5q25 0 39 37l228 571h94l-39 -550q-1 -26 8 -42.5t23 -16.5q24 0 37 38l140 420q27 84 61.5 124.5t95.5 40.5q28 0 49 -19.5t21 -52.5 q0 -25 -18 -43.5t-44 -18.5q-49 0 -56 49q-1 10 -11 10q-5 0 -10 -5t-10.5 -15.5t-10 -20t-11 -26.5t-9.5 -26.5t-9.5 -28.5t-8.5 -24l-132 -388q-39 -113 -125 -113q-53 0 -76 40.5t-19 97.5l29 370h-2l-165 -417q-45 -92 -126 -92q-29 0 -48.5 13.5t-28 36t-11 45 t-0.5 47.5z" />
<glyph unicode="X" horiz-adv-x="601" d="M343 116l-44 126h-2q-47 -259 -186 -259q-29 0 -52 19t-23 51q0 27 17.5 46t45.5 19q25 0 40 -15.5t16 -42.5q0 -11 12 -11q10 0 26 27.5t37.5 91.5t41.5 152q-49 144 -78 239q-12 36 -31 57.5t-42 21.5q-28 0 -60 -29l-21 21q64 78 136 78q82 0 126 -130l45 -135h2 q48 268 180 268q29 0 52 -19t23 -51q0 -27 -17.5 -46t-45.5 -19q-50 0 -56 58q-1 11 -12 11q-10 0 -24.5 -30.5t-34.5 -95.5t-40 -155l77 -228q27 -80 70 -80q26 0 60 29l21 -20q-65 -79 -136 -79q-79 0 -123 130z" />
<glyph unicode="Y" horiz-adv-x="618" d="M235 64l12 171l-95 329q-15 71 -55 71q-20 0 -48 -23l-21 17q74 79 131 79q74 0 102 -117l71 -251h2q50 205 98 289t122 84q30 0 53.5 -19.5t23.5 -52.5q0 -27 -18 -47t-47 -20q-52 0 -58 60q-1 11 -12 11q-17 0 -62 -130.5t-77 -271.5l-10 -151q-2 -47 32 -47l49 7 l9 -26l-103 -31q-28 -9 -48 -9q-29 0 -41.5 23.5t-9.5 54.5z" />
<glyph unicode="Z" horiz-adv-x="554" d="M28 -15l-25 29l363 619l-1 2q-26 -4 -52 -4q-44 0 -81.5 8.5t-57.5 16.5t-23 8q-11 0 -11 -10q0 -6 5 -19t5 -23q0 -23 -17.5 -40.5t-41.5 -17.5q-25 0 -46.5 20.5t-21.5 46.5q0 35 28 61t65 26q32 0 101 -17t108 -17q111 0 170 34l25 -28l-367 -617l1 -2q9 2 58 2 q34 0 73 -9t64.5 -18t27.5 -9q13 0 13 13q0 6 -5 20.5t-5 22.5q0 23 20 41.5t45 18.5q26 0 47 -21.5t21 -49.5q0 -36 -29 -60t-68 -24q-36 0 -107 15.5t-111 15.5q-110 0 -170 -34z" />
<glyph unicode="[" horiz-adv-x="326" d="M34 -174l42 614q8 120 22 178.5t43 95.5t92 72l14 -18q-44 -60 -48 -124l-53 -790q-4 -47 35 -47l49 7l9 -26l-103 -31q-30 -9 -48 -9q-30 0 -43.5 24t-10.5 54z" />
<glyph unicode="\" horiz-adv-x="520" d="M313 64l-204 536q-12 32 -30 39.5t-51 0.5l-9 26l86 31q17 6 29 6q25 0 41.5 -18.5t31.5 -55.5l204 -537q12 -32 29 -38.5t52 -1.5l9 -26l-86 -31q-18 -7 -33 -7q-23 0 -38.5 18t-30.5 58z" />
<glyph unicode="]" horiz-adv-x="326" d="M96 -252l-14 18l10 17q10 17 22.5 48t14.5 59l53 780q2 47 -34 47l-49 -7l-9 26l103 31q32 9 48 9q29 0 42.5 -24t11.5 -54l-42 -604q-6 -118 -20 -178t-44 -96t-93 -72z" />
<glyph unicode="^" horiz-adv-x="696" d="M104 387l-24 27l234 265q13 17 34 17t34 -17l234 -265l-24 -27l-251 186h-2z" />
<glyph unicode="_" horiz-adv-x="678" d="M62 -104l32 65l26 -9q-6 -14 -6 -23q0 -28 46 -28h397q68 0 68 -40q0 -15 -12 -41l-27 -58l-27 9q6 13 6 22q0 29 -79 29h-363q-70 0 -70 41q0 13 9 33z" />
<glyph unicode="`" horiz-adv-x="490" d="M146 767h104q10 -49 16 -72.5t21 -54.5t40 -50.5t63 -34.5l-8 -26q-32 -1 -71 13t-76.5 41t-63 75.5t-25.5 108.5z" />
<glyph unicode="a" horiz-adv-x="568" d="M229 -15q-87 0 -137.5 69.5t-50.5 163.5q0 116 68.5 192t145.5 76q58 0 115 -54h2l18 37h93q-29 -358 -29 -363q0 -48 38 -48q31 0 61 30l22 -21q-80 -82 -150 -82q-55 0 -74 57h-2q-64 -57 -120 -57zM342 75q-1 9 -1 30q0 2 4.5 59.5l10 129t7.5 101.5q-39 39 -76 39 q-51 0 -89.5 -63t-38.5 -157q0 -78 29 -127t71 -49q43 0 83 37z" />
<glyph unicode="b" horiz-adv-x="540" d="M62 0l45 619q4 49 -33 49l-51 -8l-9 27l106 32q30 9 50 9q30 0 42.5 -24.5t9.5 -55.5l-16 -201h2q48 38 95 38q85 0 141 -71.5t56 -163.5q0 -116 -69 -191t-145 -75q-59 0 -116 50h-2l-16 -34h-90zM179 69q36 -33 75 -33q50 0 89 63.5t39 156.5q0 77 -32.5 127.5 t-75.5 50.5q-34 0 -69 -29z" />
<glyph unicode="c" horiz-adv-x="474" d="M410 105l18 -19q-66 -101 -170 -101q-88 0 -153 69.5t-65 179.5q0 105 67.5 178t162.5 73q65 0 117 -29.5t54 -91.5q-2 -30 -19 -47.5t-42 -17.5q-29 0 -45.5 17.5t-16.5 40.5q0 29 29 47q10 6 10 13q0 15 -18.5 25t-45.5 10q-60 0 -98 -59t-38 -153q0 -85 37 -138.5 t98 -53.5q56 0 118 57z" />
<glyph unicode="d" horiz-adv-x="567" d="M349 42h-2q-64 -57 -119 -57q-84 0 -135.5 70t-51.5 163q0 116 66.5 192t142.5 76q61 0 111 -50h2l14 183q4 49 -33 49l-51 -8l-9 27l106 32q30 9 49 9q30 0 43 -24.5t10 -55.5l-39 -542q-1 -24 10 -36t28 -12q28 0 61 30l22 -21q-36 -37 -77.5 -59.5t-75.5 -22.5 q-54 0 -72 57zM341 77q-1 9 -1 28q0 18 19 289q-38 40 -78 40q-50 0 -86 -62.5t-36 -157.5q0 -78 28 -126t70 -48q44 0 84 37z" />
<glyph unicode="e" horiz-adv-x="490" d="M412 103l17 -16q-65 -102 -174 -102q-92 0 -153.5 70.5t-61.5 170.5q0 109 73 184t189 75q62 0 105 -30.5t43 -92.5q0 -129 -290 -186q23 -120 125 -126q55 0 127 53zM154 241q0 -12 2 -34q184 50 192 165q0 29 -20.5 55t-49.5 26q-63 0 -93.5 -65.5t-30.5 -146.5z" />
<glyph unicode="f" horiz-adv-x="335" d="M32 -236l-15 17q60 73 64 202l15 446h-56l3 40h54q7 125 61.5 193.5t138.5 68.5q54 0 87.5 -26.5t33.5 -69.5q0 -25 -18 -42.5t-44 -17.5q-9 0 -20.5 3.5t-24.5 18t-13 37.5q0 10 2.5 18.5t5 12t6.5 7.5l4 3q6 6 6 10q0 18 -20 18q-39 0 -65 -66.5t-26 -167.5h93l-5 -40 h-89l-10 -198q-6 -125 -19.5 -207.5t-50.5 -154.5t-98 -105z" />
<glyph unicode="g" horiz-adv-x="514" d="M375 -306l-15 20q10 7 16.5 27t6.5 37q0 36 -66 36h-147q-64 0 -110 29t-46 95q0 44 24 86t69 71q-23 25 -41 72t-18 89q0 98 54.5 164t151.5 66q47 0 93 -23q10 52 40 78t67 26q29 0 52 -16.5t23 -46.5q0 -25 -14.5 -44t-41.5 -19q-28 0 -41 17.5t-13 39.5q0 3 -3 6.5 t-6 3.5q-8 0 -16.5 -12t-8.5 -23q0 -21 4 -35q71 -89 71 -174q0 -105 -58.5 -166.5t-145.5 -61.5q-73 0 -128 38q-17 -7 -30.5 -34.5t-13.5 -54.5q0 -29 22.5 -50t60.5 -21h166q63 0 95.5 -24t32.5 -64q0 -34 -22.5 -69.5t-63.5 -62.5zM246 73q47 0 78 47.5t31 149.5v-1 q0 182 -95 182q-48 0 -76.5 -50.5t-28.5 -131.5q-1 -95 24 -145.5t67 -50.5z" />
<glyph unicode="h" horiz-adv-x="569" d="M63 0l45 619q4 49 -33 49l-52 -8l-9 27l106 32q30 9 50 9q30 0 42.5 -24.5t9.5 -55.5l-18 -234h2q85 71 166 71q110 0 100 -142l-18 -237q-2 -24 9.5 -36t28.5 -12q31 0 61 30l22 -21q-36 -37 -77.5 -59.5t-75.5 -22.5q-39 0 -62.5 30t-18.5 90l18 235q3 34 -8 58t-39 24 q-45 0 -111 -52l-27 -370h-111z" />
<glyph unicode="i" horiz-adv-x="323" d="M89 105l31 263q0 48 -38 48q-31 0 -61 -30l-22 21q36 37 77.5 59.5t75.5 22.5q39 0 63.5 -30t17.5 -90l-31 -263q-3 -24 8.5 -36t29.5 -12q31 0 61 30l22 -21q-36 -37 -77.5 -59.5t-75.5 -22.5q-38 0 -62 30t-19 90zM187 568q-34 0 -57 23t-23 57q0 33 23 56.5t57 23.5 q33 0 56.5 -23.5t23.5 -56.5q0 -34 -23.5 -57t-56.5 -23z" />
<glyph unicode="j" horiz-adv-x="302" d="M170 568q-34 0 -57 23t-23 57q0 33 23 56.5t57 23.5q33 0 56.5 -23.5t23.5 -56.5q0 -34 -23.5 -57t-56.5 -23zM38 -236l-15 17q60 72 64 202l21 376q1 50 -33 50q-16 0 -34.5 -8t-27.5 -17l-23 21q86 80 144 80q51 0 71 -43t16 -99l-8 -112q-14 -192 -50.5 -305.5 t-124.5 -161.5z" />
<glyph unicode="k" horiz-adv-x="574" d="M63 0l45 619q4 49 -33 49l-52 -8l-9 27l106 32q30 9 50 9q29 0 41 -24t9 -56l-48 -648h-109zM258 116l-61 140q31 67 68 114.5t72.5 70t63 32t51.5 9.5q32 0 57.5 -22t25.5 -54q0 -24 -18 -41.5t-43 -17.5q-22 0 -40 17t-18 40q0 2 1 9.5t1 10.5q0 14 -13 14 q-15 0 -61 -40t-59 -69l94 -209q27 -61 71 -61q24 0 54 28l23 -20q-62 -82 -135 -82q-78 0 -134 131z" />
<glyph unicode="l" horiz-adv-x="298" d="M71 105l37 514q4 49 -34 49l-51 -8l-9 27l106 32q30 9 50 9q30 0 42.5 -24.5t9.5 -55.5l-39 -542q-1 -24 10 -36t28 -12q28 0 61 30l22 -21q-36 -37 -77.5 -59.5t-75.5 -22.5q-38 0 -61 30.5t-19 89.5z" />
<glyph unicode="m" horiz-adv-x="874" d="M88 0l26 363q4 50 -39 50q-29 0 -61 -32l-22 21q36 37 77.5 59.5t75.5 22.5q63 0 77 -78h2q41 37 89.5 58t87.5 21q80 0 96 -79h2q96 79 178 79q110 0 100 -142l-17 -237q-2 -24 9.5 -36t28.5 -12q31 0 61 30l22 -21q-36 -37 -77.5 -59.5t-75.5 -22.5q-38 0 -61.5 30 t-19.5 90l17 235q3 33 -8 57t-39 24q-47 0 -115 -54q0 -4 -0.5 -12t-0.5 -12l-22 -343h-113l22 340q4 81 -47 81q-47 0 -115 -54q0 -4 -0.5 -11.5t-0.5 -11.5l-24 -344h-113z" />
<glyph unicode="n" horiz-adv-x="598" d="M88 0l25 363q1 25 -10 37.5t-28 12.5q-29 0 -61 -32l-22 21q36 37 77.5 59.5t75.5 22.5q62 0 76 -78h2q39 37 88.5 58t89.5 21q110 0 100 -142l-17 -237q0 -49 38 -49q30 0 61 31l22 -21q-36 -37 -77.5 -59.5t-75.5 -22.5q-45 0 -63.5 34.5t-15.5 86.5l15 234 q4 81 -47 81q-47 0 -115 -54q0 -25 -1 -35q-19 -283 -24 -332h-113z" />
<glyph unicode="o" horiz-adv-x="537" d="M40 229q0 103 63 179.5t166 76.5q102 0 165 -72t63 -173q0 -99 -63.5 -177t-165.5 -78q-96 0 -162 70.5t-66 173.5zM262 22q34 0 58.5 24t37 62t18 73t5.5 70v5q0 82 -27 137.5t-78 55.5q-33 0 -57 -23.5t-36.5 -61t-18 -72.5t-6.5 -70v1q0 -84 26.5 -142.5t77.5 -58.5z " />
<glyph unicode="p" horiz-adv-x="532" d="M39 -170l46 641h91l11 -36h2q59 50 109 50q85 0 139.5 -71.5t54.5 -163.5q0 -118 -62.5 -192t-143.5 -74q-61 0 -118 48h-2l-12 -173q-4 -49 33 -49l51 8l9 -27l-106 -32q-30 -9 -50 -9q-30 0 -42.5 24.5t-9.5 55.5zM193 398l-25 -326q40 -38 85 -38q49 0 85 64t36 158 q0 77 -31.5 128t-74.5 51q-35 0 -75 -37z" />
<glyph unicode="q" horiz-adv-x="541" d="M318 -170l14 193h-2q-49 -38 -93 -38q-85 0 -140.5 71.5t-55.5 163.5q0 116 68.5 191t144.5 75q60 0 117 -51h2l16 36h89l-45 -612q-4 -49 33 -49l51 8l9 -27l-106 -32q-34 -10 -50 -9q-30 0 -42.5 24.5t-9.5 55.5zM335 67l26 333q-37 34 -75 34q-50 0 -88.5 -63.5 t-38.5 -156.5q0 -77 32.5 -126.5t75.5 -49.5q34 0 68 29z" />
<glyph unicode="r" horiz-adv-x="500" d="M88 0l26 363q1 23 -10.5 36.5t-28.5 13.5q-29 0 -61 -32l-22 21q36 37 77.5 59.5t75.5 22.5q85 0 76 -129l-3 -42h2q17 49 40.5 83.5t42 51t44.5 25t36 9t28 0.5q31 0 54 -22.5t23 -55.5q0 -24 -18 -41.5t-43 -17.5q-22 0 -40 17t-18 40q0 9 1 14q4 20 -10 20 q-31 0 -80 -102t-72 -198l-12 -136h-108z" />
<glyph unicode="s" horiz-adv-x="480" d="M441 364q-2 -30 -19 -47.5t-42 -17.5q-29 0 -45.5 17.5t-16.5 40.5q0 29 29 47q10 6 10 13q0 15 -31 25t-66 10q-44 0 -71.5 -17.5t-27.5 -42.5t28.5 -49t68.5 -45.5l80.5 -44.5t69 -56.5t28.5 -71.5q0 -64 -53 -103t-139 -39q-52 0 -96.5 11t-76.5 39.5t-32 70.5 q0 29 17.5 47t43.5 18q29 0 45.5 -17.5t16.5 -40.5q0 -16 -9 -29t-20 -18q-10 -5 -10 -12q0 -15 32 -24t66 -9q41 0 74 20.5t33 57.5q0 26 -28 51t-67.5 46l-79.5 43.5t-68 51.5t-28 61q0 57 52.5 96.5t138.5 39.5q43 0 84 -11t74.5 -40t34.5 -71z" />
<glyph unicode="t" horiz-adv-x="354" d="M87 105l22 330h-66l4 22q62 16 96.5 51t62.5 98h28l-10 -137h119l-6 -34h-115l-23 -329q0 -48 38 -48q31 0 61 30l22 -21q-80 -82 -149 -82q-38 0 -63 31t-21 89z" />
<glyph unicode="u" horiz-adv-x="593" d="M96 126l18 237q1 24 -10 36t-28 12q-31 0 -61 -30l-22 21q36 37 77.5 59.5t75.5 22.5q41 0 60.5 -27t19 -62.5t-1.5 -69.5l-15 -196q-3 -33 8 -57t39 -24q39 0 109 54v5l26 366h113l-26 -367q0 -24 10.5 -37t27.5 -13q29 0 61 32l22 -21q-36 -37 -77.5 -59.5t-75.5 -22.5 q-63 0 -77 77h-2q-93 -78 -171 -78q-60 0 -82.5 40t-17.5 102z" />
<glyph unicode="v" horiz-adv-x="520" d="M100 166l14 198q0 24 -10.5 37t-27.5 13q-29 0 -61 -32l-22 21q36 37 77.5 59.5t75.5 22.5q81 0 81 -120l-14 -196q-3 -40 18 -79.5t58 -39.5q69 0 111 76t42 167q0 25 -8 65t-23 40q-7 0 -13 -10q-14 -23 -42 -23t-44 17t-16 45q0 26 19.5 43t48.5 17q51 0 88 -49 t37 -147q0 -133 -71 -219t-167 -86q-70 0 -113 53.5t-38 126.5z" />
<glyph unicode="w" horiz-adv-x="801" d="M99 166l15 198q1 24 -10.5 37t-28.5 13q-29 0 -61 -32l-22 21q36 37 77.5 59.5t75.5 22.5q38 0 61.5 -29.5t19.5 -90.5l-14 -196q-3 -40 18 -79.5t58 -39.5q61 0 102 71q-3 18 -1 43l14 198q0 24 -10.5 37t-27.5 13q-29 0 -61 -32l-22 21q36 37 77.5 59.5t75.5 22.5 q38 0 61.5 -29.5t19.5 -90.5l-14 -196q-3 -40 18 -79.5t58 -39.5q46 0 80 36t48.5 87.5t14.5 109.5q0 24 -7.5 69.5t-22.5 45.5q-7 0 -13 -10q-14 -23 -42 -23t-44 17t-16 45q0 26 19.5 43t48.5 17q50 0 87 -53.5t37 -152.5q0 -133 -66 -214t-162 -81q-91 0 -133 84 q-66 -82 -157 -82q-70 0 -113 53.5t-38 126.5z" />
<glyph unicode="x" horiz-adv-x="536" d="M147 75q1 -3 1 -7t1 -7q3 -10 13 -10q16 0 34.5 53.5t25.5 88.5l-43 145q-11 38 -30.5 56.5t-39.5 18.5q-27 0 -58 -29l-22 20q70 81 133 81q41 0 72.5 -28t53.5 -102h2q20 59 51.5 95t86.5 36q29 0 52.5 -19.5t23.5 -49.5q0 -23 -17.5 -42t-40.5 -19q-19 0 -36 12 t-22 30q0 2 -1 7t-1 7q-3 10 -14 10q-14 0 -35 -56t-27 -88l43 -145q11 -38 30.5 -56.5t39.5 -18.5q27 0 58 29l22 -20q-70 -81 -133 -81q-41 0 -72.5 28t-53.5 102h-2q-20 -61 -50.5 -96t-87.5 -35q-30 0 -53.5 19.5t-23.5 51.5q0 24 18 44t44 20q20 0 36.5 -12.5 t21.5 -32.5z" />
<glyph unicode="y" horiz-adv-x="618" d="M223 -169q1 -3 1 -8t1 -8q2 -11 10 -11q15 -1 30.5 43t21.5 79l13 74h-108l-61 337q-10 76 -56 76q-34 0 -61 -29l-22 19q74 83 137 83q96 0 121 -146l55 -303h2l48 255q21 102 57 148.5t93 46.5q36 0 58.5 -18.5t22.5 -51.5q0 -23 -17 -42.5t-42 -19.5q-20 0 -37.5 13 t-21.5 33q0 3 -1 8t-1 8q-2 11 -10 11q-15 0 -30.5 -44t-21.5 -78l-69 -366q-19 -101 -56 -148t-93 -47q-36 0 -58.5 18.5t-22.5 51.5q0 23 17 42.5t42 19.5q20 0 37.5 -13t21.5 -33z" />
<glyph unicode="z" horiz-adv-x="467" d="M48 -13l-28 39l289 405l-1 1q-18 -3 -36 -3q-33 0 -81.5 10t-55.5 10q-10 0 -10 -9q0 -4 8 -16t8 -26q0 -27 -18 -44t-43 -17t-43 19t-18 46q0 33 29 58t66 25q34 0 92 -10t96 -10q52 0 117 18l28 -39l-289 -405l1 -1q18 3 36 3q33 0 80 -10t54 -10q12 0 12 10 q0 5 -6.5 13.5t-6.5 27.5q0 26 17 43.5t42 17.5t43 -20t18 -47q0 -33 -29 -57t-66 -24q-35 0 -89.5 10t-91.5 10q-59 0 -124 -18z" />
<glyph unicode="{" horiz-adv-x="331" d="M68 -174l23 327q3 35 -21 54t-61 30q0 4 0.5 11.5t0.5 11.5q92 24 95 82l9 138q7 104 20 155t41 84t91 68l15 -18q-43 -60 -46 -124l-15 -272q-5 -98 -81 -125v-3q71 -31 64 -123l-20 -268q-4 -47 32 -47l49 7l9 -26l-103 -31q-24 -8 -41 -8q-66 0 -61 77z" />
<glyph unicode="|" horiz-adv-x="202" d="M29 -35l54 750q4 48 -32 48q-9 0 -23 -3l-8 29l76 23q28 9 45 9q52 0 47 -77l-54 -751q-4 -47 32 -47q10 0 25 3l9 -29l-79 -24q-29 -9 -41 -9q-29 0 -41.5 23.5t-9.5 54.5z" />
<glyph unicode="}" horiz-adv-x="369" d="M260 153l-13 -135q-11 -124 -39.5 -175.5t-110.5 -97.5l-15 18q42 60 46 124q4 58 6.5 103t4 67t2 36.5t1 20t0.5 8.5q5 92 83 123v3q-73 29 -65 125q2 25 9 135t11 159q4 47 -32 47l-49 -7l-9 26l103 31q30 8 41 8q66 0 61 -77l-23 -353q-1 -25 13.5 -43t31 -25.5 t39.5 -13.5q0 -4 -1 -11.5t-1 -11.5q-89 -23 -94 -84z" />
<glyph unicode="~" horiz-adv-x="602" d="M138 141l-25 -15q-22 48 -22 101t24.5 87.5t71.5 34.5q36 0 83 -24t88.5 -48t64.5 -24q24 0 35.5 20.5t11.5 50.5q0 10 -2 26l25 14q18 -45 18 -91q0 -56 -25.5 -92.5t-70.5 -36.5q-43 0 -117 46.5t-102 46.5q-29 0 -45 -20t-16 -50q0 -13 3 -26z" />
<glyph unicode="&#xa1;" horiz-adv-x="347" d="M52 -180l38 327q6 47 -32 47l-49 -7l-9 26l103 31q29 9 51 9q29 0 41.5 -24t9.5 -54l-38 -326q-6 -48 32 -48l49 8l9 -26l-103 -31q-28 -9 -48 -9q-29 0 -43 24t-11 53zM77 405q0 34 23.5 57t56.5 23q34 0 57 -23t23 -57q0 -33 -23 -56.5t-57 -23.5q-33 0 -56.5 23.5 t-23.5 56.5z" />
<glyph unicode="&#xa2;" d="M460 105l18 -19q-60 -92 -153 -100l-5 -74h-10q-10 0 -22 2l-11 1l4 72q-80 10 -135.5 78t-55.5 169q0 103 65.5 176t159.5 75l6 86l43 -3l-6 -86q55 -9 93 -37.5t40 -80.5q-2 -29 -19.5 -47t-41.5 -18q-28 0 -45 18t-17 40q0 16 10 27.5t19.5 19t9.5 13.5q0 15 -19 25.5 t-45 10.5q-60 0 -98 -59.5t-38 -153.5q0 -85 37 -138.5t98 -53.5q56 0 118 57z" />
<glyph unicode="&#xa3;" d="M45 -3l-16 30q47 27 74 88.5t45 197.5h-61l1 11q0 10 2 21l2 11h62q11 90 22 244q4 48 -32 48l-49 -8l-9 26l103 31q29 9 51 9q28 0 40.5 -24t11.5 -53q-6 -178 -17 -273h192l-5 -43h-191q-10 -80 -25.5 -133.5t-27.5 -74.5t-30 -41v-2q36 7 130.5 -14.5t103.5 -21.5 q10 0 10 11q0 4 -6 15.5t-6 22.5q0 23 20 39t42 16q27 0 47.5 -19.5t20.5 -43.5q0 -34 -26 -57t-59 -23q-48 0 -144 18t-148 18q-69 0 -128 -26z" />
<glyph unicode="&#xa4;" horiz-adv-x="928" d="M67 358q0 165 120 277.5t287 112.5q102 0 191 -53.5t143 -148t54 -206.5q0 -156 -117.5 -272t-279.5 -116q-106 0 -196.5 51t-146 145t-55.5 210zM138 363q0 -163 88 -267.5t233 -104.5q144 0 238 106t94 248q0 157 -91 261t-224 104q-144 0 -241 -103t-97 -244zM258 190 l155 156l-126 126q-28 28 -28 40t10.5 21.5t18 12.5l23.5 9l156 -156l126 127q28 28 40 28t21.5 -10.5t12.5 -18l9 -23.5l-156 -156l127 -126q28 -28 28 -40t-10.5 -21.5t-18 -12.5l-23.5 -9l-156 155l-126 -126q-28 -28 -40 -28t-21.5 10.5t-12.5 18z" />
<glyph unicode="&#xa5;" d="M45 188h154l4 47l-12 44h-151l1 11q1 10 3 21l1 11h135l-62 242q-18 71 -55 71q-20 0 -48 -23l-21 17q29 29 45.5 43t43 25.5t56.5 11.5q60 0 88 -118q39 -165 60 -247h2q56 204 101.5 286.5t119.5 82.5q30 0 53.5 -19.5t23.5 -52.5q0 -27 -18 -47t-47 -20q-25 0 -41 16 t-18 44q-2 11 -11 11q-12 0 -50.5 -102.5t-69.5 -220.5h138l-5 -43h-144q-6 -24 -12 -91h161l-5 -43h-159l-3 -53q-2 -47 32 -47q13 0 29 3l20 4l9 -26l-103 -31q-28 -9 -48 -9q-29 0 -41 23.5t-10 54.5l5 81h-156l1 11q1 10 3 21z" />
<glyph unicode="&#xa6;" horiz-adv-x="292" d="M111 385l22 315q1 24 3 33.5t8.5 15t21.5 5.5q8 0 20 -4q10 -4 18 -8l8 -5l-22 -315q-1 -29 -9 -40t-27 -11q-7 0 -17.5 3.5t-18.5 7.5zM80 -44l22 315q1 24 3 33.5t8.5 15t21.5 5.5q8 0 19.5 -4.5t19.5 -8.5l7 -4l-22 -315q-1 -29 -9 -40t-27 -11q-7 0 -17 4 q-10 2 -18 6z" />
<glyph unicode="&#xa7;" horiz-adv-x="482" d="M197 -27l-47.5 62l-41 54.5t-28.5 41.5t-23.5 42t-11 36t-5.5 42q0 87 121 188q-22 52 -22 107q0 64 39.5 118.5t102.5 54.5q31 0 57 -19t26 -50q0 -24 -18.5 -43t-43.5 -19q-23 0 -39.5 17.5t-16.5 42.5q0 12 -3 16t-11 6q-15 0 -23.5 -13.5t-8.5 -30.5q0 -70 85 -182 l41.5 -54l37 -48.5l27 -37.5t24 -37.5t14 -31t11 -35.5t2.5 -34q0 -87 -122 -187q24 -53 24 -95q0 -46 -13 -86t-46.5 -70t-83.5 -30q-31 0 -57 19t-26 50q0 24 18.5 43t43.5 19q23 0 39.5 -17.5t16.5 -42.5q0 -12 3 -16t11 -6q15 0 23.5 13.5t8.5 30.5q0 67 -85 182z M211 355q-18 22 -37 58q-52 -49 -52 -120q0 -35 18 -60q9 -13 131 -171q21 -30 37 -58q52 51 52 120q0 35 -40 88z" />
<glyph unicode="&#xa8;" horiz-adv-x="560" d="M178 577q-31 0 -52 21t-21 52q0 30 21 51.5t52 21.5q30 0 51.5 -21.5t21.5 -51.5q0 -31 -21.5 -52t-51.5 -21zM398 577q-31 0 -52 21t-21 52q0 30 21 51.5t52 21.5q30 0 51.5 -21.5t21.5 -51.5q0 -31 -21.5 -52t-51.5 -21z" />
<glyph unicode="&#xa9;" horiz-adv-x="928" d="M650 205l15 -11q-73 -116 -180 -116q-101 0 -172 76.5t-71 184.5q0 109 70 192.5t184 83.5q80 0 131.5 -49t51.5 -108q0 -29 -17 -46.5t-44 -17.5t-44.5 18.5t-17.5 43.5q0 39 35 55q11 4 11 11q0 19 -25 39.5t-65 20.5q-41 0 -72 -21t-48.5 -56.5t-25.5 -77t-8 -87.5 q0 -80 41 -144t108 -64q70 0 143 73zM67 358q0 165 120 277.5t287 112.5q102 0 191 -53.5t143 -148t54 -206.5q0 -156 -117.5 -272t-279.5 -116q-106 0 -196.5 51t-146 145t-55.5 210zM138 363q0 -163 88 -267.5t233 -104.5q144 0 238 106t94 248q0 157 -91 261t-224 104 q-144 0 -241 -103t-97 -244z" />
<glyph unicode="&#xaa;" horiz-adv-x="459" d="M447 392l18 -17q-64 -66 -121 -66q-51 0 -66 46q-53 -46 -93 -46q-69 0 -111 56.5t-42 132.5t47.5 146.5t123.5 70.5q42 0 89 -44l20 30h75q-20 -290 -20 -294q0 -39 31 -39q25 0 49 24zM271 382v24q0 2 3 48.5l6.5 105.5t4.5 83q-31 31 -57 31q-39 0 -66 -51t-27 -129 q0 -64 20 -103t54 -39q29 0 62 30z" />
<glyph unicode="&#xab;" horiz-adv-x="572" d="M433 11l-174 173q-22 22 -22 48q0 8 7 20q8 10 16 18l7 8l198 181l24 -11l-130 -216l99 -204zM253 11l-174 173q-22 22 -22 48q0 8 7 20q8 10 16 18l7 8l198 181l24 -11l-130 -216l99 -204z" />
<glyph unicode="&#xac;" d="M83 364h375q58 0 53 -54q-2 -19 -8 -80.5t-8 -94.5q-3 -39 -11 -47q-9 -9 -32 -6q-5 0 -14 4q-10 4 -16 8l-6 4l17 190h-308q-18 0 -24.5 0.5t-16.5 3.5t-13 11.5t-2 23.5q0 16 14 37z" />
<glyph unicode="&#xad;" horiz-adv-x="413" d="M51 254q0 9 2 20t8 26.5t9 22.5t13 28.5t12 25.5l26 -11q-5 -16 -6 -28q-1 -20 12.5 -28t33.5 -8h128q73 0 73 -49q0 -13 -5.5 -31t-11 -31.5t-15 -34t-12.5 -27.5l-26 11q5 16 6 28q1 20 -12.5 28t-33.5 8h-128q-73 0 -73 50z" />
<glyph unicode="&#xae;" horiz-adv-x="928" d="M282 99l30 412q2 26 -10 35t-30 7l-6 25q87 39 179 39q103 0 162 -42.5t59 -118.5q0 -60 -51.5 -97t-115.5 -37v-2l79 -137q19 -32 41 -32q11 0 31 17l23 -21q-48 -60 -99 -60q-56 0 -98 87l-70 146l2 13q58 0 104 33.5t46 89.5q0 128 -128 128q-20 0 -39 -4v-2 q2 -2 4.5 -5.5t7 -15t3.5 -23.5l-31 -435h-93zM67 358q0 165 120 277.5t287 112.5q102 0 191 -53.5t143 -148t54 -206.5q0 -156 -117.5 -272t-279.5 -116q-106 0 -196.5 51t-146 145t-55.5 210zM138 363q0 -163 88 -267.5t233 -104.5q144 0 238 106t94 248q0 157 -91 261 t-224 104q-144 0 -241 -103t-97 -244z" />
<glyph unicode="&#xaf;" horiz-adv-x="573" d="M111 747h305q28 0 42 -8t14 -31q0 -21 -14 -57h-305q-28 0 -42 8t-14 31q0 20 14 57z" />
<glyph unicode="&#xb0;" horiz-adv-x="513" d="M100 565q0 67 50 109t127 42q76 0 126 -42t50 -109t-50 -109.5t-126 -42.5t-126.5 42.5t-50.5 109.5zM277 448q45 0 67 33t22 84t-22 83.5t-67 32.5t-67.5 -33t-22.5 -83q0 -51 22.5 -84t67.5 -33z" />
<glyph unicode="&#xb1;" d="M241 114l10 155h-115q-7 0 -19.5 -0.5t-19 -0.5t-16 1t-14 3.5t-9.5 6.5t-6.5 11.5t-0.5 17.5l14 37h191l7 93q1 8 1.5 23t1 22t3 17t6.5 14.5t12.5 7t20.5 0.5q5 0 14 -4q10 -4 16 -8l6 -4l-11 -161h158q18 0 24.5 -0.5t16.5 -3.5t13 -11.5t2 -23.5l-14 -37h-205l-6 -89 q-2 -25 -3 -34t-4.5 -23.5t-11 -19.5t-19.5 -5q-5 0 -15.5 4t-18.5 8zM46 58h426q18 0 24.5 -0.5t16.5 -3.5t13 -11.5t2 -23.5l-14 -37h-426q-18 0 -24.5 0.5t-16.5 3.5t-13 11.5t-2 23.5z" />
<glyph unicode="&#xb2;" horiz-adv-x="332" d="M71 315l-10 28q15 33 93.5 134.5t78.5 133.5q0 38 -18 57.5t-44 19.5q-27 0 -43 -9.5t-16 -22.5q0 -4 10 -9q29 -15 29 -39q0 -17 -13.5 -30t-31.5 -13q-20 0 -33 14t-13 36q0 45 37 73t91 28q139 0 139 -101q0 -30 -20 -55.5t-47 -43t-66 -48.5t-67 -66l1 -1h136 q35 0 50 47l18 -6q-4 -41 -5 -64q-3 -40 -13 -50q-13 -13 -44 -13h-199z" />
<glyph unicode="&#xb3;" horiz-adv-x="328" d="M60 389l13 9q41 -39 80 -39q31 0 51 18t20 55q0 32 -18 57t-42 26q0 3 0.5 10t0.5 10q73 3 73 82q0 31 -19 51.5t-49 20.5q-26 0 -42.5 -9.5t-16.5 -22.5q0 -3 19.5 -15.5t19.5 -32.5q0 -17 -13 -29.5t-31 -12.5q-20 0 -33 14t-13 36q0 44 36.5 71.5t90.5 27.5 q62 0 101.5 -27t39.5 -80q0 -38 -31.5 -60.5t-76.5 -24.5q44 -6 71.5 -33.5t27.5 -67.5q0 -46 -38.5 -77.5t-90.5 -31.5q-94 0 -130 75z" />
<glyph unicode="&#xb4;" horiz-adv-x="520" d="M184 529l-8 26q38 15 63 34.5t40 50.5t21 54.5t16 72.5h104q0 -60 -25.5 -108.5t-63 -75.5t-76.5 -41t-71 -13z" />
<glyph unicode="&#xb5;" horiz-adv-x="593" d="M47 -214l-15 17q22 26 34.5 67.5t15 65t5.5 69.5l31 470h114l-23 -346q-5 -81 47 -81q39 0 109 54v3l26 369h113l-26 -368q-1 -24 10 -37t28 -13q29 0 61 32l22 -21q-36 -37 -77.5 -59.5t-75.5 -22.5q-64 0 -78 77q-54 -74 -130 -74q-28 0 -53 13q-39 -161 -138 -215z " />
<glyph unicode="&#xb6;" horiz-adv-x="562" d="M325 64l47 635h113l-45 -607q-4 -47 32 -47l49 7l9 -26l-41.5 -13l-32.5 -10l-22.5 -6.5t-17 -4.5l-11.5 -2.5t-11.5 -1.5h-11.5q-36 0 -47.5 18t-9.5 58zM190 699h39l-51 -699h-39l28 392q-57 8 -92 50.5t-35 102.5q0 64 43 109t107 45z" />
<glyph unicode="&#xb7;" horiz-adv-x="300" d="M150 185q-34 0 -57 23t-23 57q0 33 23 56.5t57 23.5q33 0 56.5 -23.5t23.5 -56.5q0 -34 -23.5 -57t-56.5 -23z" />
<glyph unicode="&#xb8;" horiz-adv-x="441" d="M245 -263l-15 20q11 8 22 28t11 36q0 17 -13.5 26t-54.5 9q-63 0 -63 49q0 15 9 36l44 102l34 -18q-25 -64 -25 -67q0 -11 18 -11q129 0 129 -78q0 -32 -26.5 -67.5t-69.5 -64.5z" />
<glyph unicode="&#xb9;" horiz-adv-x="318" d="M174 357l22 272h-2q-24 -22 -49 -40q-25 -17 -39 -25l-13 -8l-13 18q28 20 72 62.5t68 72.5h75l-25 -332q-1 -26 24 -26l19 2l5 -20l-73 -15q-18 -5 -34 -5q-40 0 -37 44z" />
<glyph unicode="&#xba;" horiz-adv-x="401" d="M195 310q-76 0 -118.5 59t-42.5 142q0 51 16 95.5t55.5 76.5t95.5 32q74 0 121 -57t47 -136q0 -53 -15.5 -98.5t-56.5 -79.5t-102 -34zM195 339q79 0 79 174v7q0 167 -70 167q-75 0 -75 -178v-7q0 -163 66 -163z" />
<glyph unicode="&#xbb;" horiz-adv-x="591" d="M299 9l-23 17l128 204l-100 216l26 11l173 -181q19 -20 19 -46q0 -28 -25 -48zM113 11l-23 17l128 204l-100 216l26 11l173 -181q19 -20 19 -46q0 -28 -25 -48z" />
<glyph unicode="&#xbc;" horiz-adv-x="925" d="M174 360l22 272h-2q-24 -22 -49 -40t-39 -26l-13 -7l-13 18q28 20 72 62.5t68 72.5h75l-25 -332q-1 -26 24 -26l19 2l5 -20l-73 -15q-18 -5 -34 -5q-40 0 -37 44zM607 102l68 226q4 12 -2 19t-18 7l-20 -3l-4 20q11 2 33.5 8t40 9.5t31.5 3.5q20 0 30 -11.5t4 -36.5 l-67 -222h56l4 58l97 10l-10 -136q-3 -26 23 -26l20 2l4 -20l-73 -15q-17 -5 -34 -5q-39 0 -36 44l4 59h-144q-9 0 -7 9zM164 11l8 28q50 -5 80 42l359 546q2 3 10 16t11.5 18t11.5 14.5t13.5 13.5t14.5 7.5t18 3.5q10 0 23 -5l67 -25l-7 -27q-26 3 -42.5 -3t-32.5 -30 l-369 -555q-47 -69 -88 -69q-9 0 -18 3z" />
<glyph unicode="&#xbd;" horiz-adv-x="894" d="M174 357l22 272h-2q-24 -22 -49 -40q-25 -17 -39 -25l-13 -8l-13 18q28 20 72 62.5t68 72.5h75l-25 -332q-1 -26 24 -26l19 2l5 -20l-73 -15q-18 -5 -34 -5q-40 0 -37 44zM595 -9l-10 28q15 33 93.5 134.5t78.5 133.5q0 38 -18 57.5t-44 19.5q-27 0 -43 -9.5t-16 -22.5 q0 -4 10 -9q29 -15 29 -39q0 -17 -13.5 -30t-31.5 -13q-20 0 -33 14t-13 36q0 45 37 73t91 28q139 0 139 -101q0 -30 -20 -55.5t-47 -43t-66 -48.5t-67 -66l1 -1h136q35 0 50 47l18 -6q-4 -41 -5 -64q-3 -40 -13 -50q-13 -13 -44 -13h-199zM165 11l8 28q50 -5 80 42l359 546 q2 3 10 16t11.5 18t11.5 14.5t13.5 13.5t14.5 7.5t18 3.5q10 0 23 -5l67 -25l-7 -27q-26 3 -42.5 -3t-32.5 -30l-369 -555q-47 -69 -88 -69q-9 0 -18 3z" />
<glyph unicode="&#xbe;" horiz-adv-x="918" d="M113 389l13 9q41 -39 80 -39q31 0 51 18t20 55q0 32 -18 57t-42 26q0 3 0.5 10t0.5 10q73 3 73 82q0 31 -19 51.5t-49 20.5q-26 0 -42.5 -9.5t-16.5 -22.5q0 -3 19.5 -15.5t19.5 -32.5q0 -17 -13 -29.5t-31 -12.5q-20 0 -33 14t-13 36q0 44 36.5 71.5t90.5 27.5 q62 0 101.5 -27t39.5 -80q0 -38 -31.5 -60.5t-76.5 -24.5q44 -6 71.5 -33.5t27.5 -67.5q0 -46 -38.5 -77.5t-90.5 -31.5q-94 0 -130 75zM585 102l68 226q4 12 -2 19t-18 7l-20 -3l-4 20q11 2 33.5 8t40 9.5t31.5 3.5q20 0 30 -11.5t4 -36.5l-67 -222h56l4 58l97 10l-10 -136 q-3 -26 23 -26l20 2l4 -20l-73 -15q-17 -5 -34 -5q-39 0 -36 44l4 59h-144q-9 0 -7 9zM164 11l8 28q50 -5 80 42l359 546q2 3 10 16t11.5 18t11.5 14.5t13.5 13.5t14.5 7.5t18 3.5q10 0 23 -5l67 -25l-7 -27q-26 3 -42.5 -3t-32.5 -30l-369 -555q-47 -69 -88 -69q-9 0 -18 3 z" />
<glyph unicode="&#xbf;" horiz-adv-x="489" d="M267 223l24 -5q0 -49 -25 -102.5t-54.5 -93t-54.5 -87t-25 -86.5q0 -50 35 -87t91 -37q59 0 91 23.5t32 45.5q0 8 -12 13q-37 15 -37 57q0 27 18.5 46.5t46.5 19.5q27 0 45.5 -22t18.5 -56q0 -63 -59.5 -114t-165.5 -51q-97 0 -160.5 47.5t-63.5 130.5q0 41 20 74.5 t52 60.5l66 55t67 71.5t50 96.5zM284 279q-34 0 -57 23t-23 57q0 33 23 56.5t57 23.5q33 0 56.5 -23.5t23.5 -56.5q0 -34 -23.5 -57t-56.5 -23z" />
<glyph unicode="&#xc0;" horiz-adv-x="625" d="M189 287h235l12 152q19 234 -105 234q-114 0 -131 -231zM31 -93l-14 18q41 60 45 124l26 381q10 137 73 206.5t171 69.5q232 0 216 -283q-13 -160 -25 -331q-4 -47 32 -47l49 7l9 -26l-103 -31q-34 -9 -51 -9q-29 0 -41.5 23.5t-9.5 54.5l13 183h-234l-4 -56 q-10 -130 -39 -183.5t-113 -100.5zM190 993h104q10 -49 16 -72.5t21 -54.5t40 -50.5t63 -34.5l-8 -26q-32 -1 -71 13t-76.5 41t-63 75.5t-25.5 108.5z" />
<glyph unicode="&#xc1;" horiz-adv-x="625" d="M189 287h235l12 152q19 234 -105 234q-114 0 -131 -231zM31 -93l-14 18q41 60 45 124l26 381q10 137 73 206.5t171 69.5q232 0 216 -283q-13 -160 -25 -331q-4 -47 32 -47l49 7l9 -26l-103 -31q-34 -9 -51 -9q-29 0 -41.5 23.5t-9.5 54.5l13 183h-234l-4 -56 q-10 -130 -39 -183.5t-113 -100.5zM218 755l-8 26q38 15 63 34.5t40 50.5t21 54.5t16 72.5h104q0 -60 -25.5 -108.5t-63 -75.5t-76.5 -41t-71 -13z" />
<glyph unicode="&#xc2;" horiz-adv-x="625" d="M189 287h235l12 152q19 234 -105 234q-114 0 -131 -231zM31 -93l-14 18q41 60 45 124l26 381q10 137 73 206.5t171 69.5q232 0 216 -283q-13 -160 -25 -331q-4 -47 32 -47l49 7l9 -26l-103 -31q-34 -9 -51 -9q-29 0 -41.5 23.5t-9.5 54.5l13 183h-234l-4 -56 q-10 -130 -39 -183.5t-113 -100.5zM150 755l-21 32q38 29 82 85.5t69 120.5h124q25 -64 69 -120.5t82 -85.5l-21 -32l-191 139h-2z" />
<glyph unicode="&#xc3;" horiz-adv-x="625" d="M189 287h235l12 152q19 234 -105 234q-114 0 -131 -231zM31 -93l-14 18q41 60 45 124l26 381q10 137 73 206.5t171 69.5q232 0 216 -283q-13 -160 -25 -331q-4 -47 32 -47l49 7l9 -26l-103 -31q-34 -9 -51 -9q-29 0 -41.5 23.5t-9.5 54.5l13 183h-234l-4 -56 q-10 -130 -39 -183.5t-113 -100.5zM182 817l-22 -13q-19 41 -19 87t22 76t62 30q39 0 110 -41.5t94 -41.5q40 0 40 63q0 14 -1 21l21 12q16 -38 16 -79q0 -48 -22.5 -79.5t-60.5 -31.5q-34 0 -96 40.5t-94 40.5q-24 0 -38.5 -17.5t-14.5 -44.5q0 -10 3 -22z" />
<glyph unicode="&#xc4;" horiz-adv-x="625" d="M189 287h235l12 152q19 234 -105 234q-114 0 -131 -231zM31 -93l-14 18q41 60 45 124l26 381q10 137 73 206.5t171 69.5q232 0 216 -283q-13 -160 -25 -331q-4 -47 32 -47l49 7l9 -26l-103 -31q-34 -9 -51 -9q-29 0 -41.5 23.5t-9.5 54.5l13 183h-234l-4 -56 q-10 -130 -39 -183.5t-113 -100.5zM232 803q-31 0 -52 21t-21 52q0 30 21 51.5t52 21.5q30 0 51.5 -21.5t21.5 -51.5q0 -31 -21.5 -52t-51.5 -21zM452 803q-31 0 -52 21t-21 52q0 30 21 51.5t52 21.5q30 0 51.5 -21.5t21.5 -51.5q0 -31 -21.5 -52t-51.5 -21z" />
<glyph unicode="&#xc5;" horiz-adv-x="625" d="M189 287h235l12 152q19 234 -105 234q-114 0 -131 -231zM31 -93l-14 18q41 60 45 124l26 381q10 137 73 206.5t171 69.5q232 0 216 -283q-13 -160 -25 -331q-4 -47 32 -47l49 7l9 -26l-103 -31q-34 -9 -51 -9q-29 0 -41.5 23.5t-9.5 54.5l13 183h-234l-4 -56 q-10 -130 -39 -183.5t-113 -100.5zM204 866q0 53 40.5 85.5t99.5 32.5q56 0 98.5 -31t46.5 -87q-1 -54 -40.5 -86.5t-98.5 -32.5q-57 0 -101.5 31.5t-44.5 87.5zM347 776q54 0 56 93q0 87 -54 87q-30 0 -44.5 -28t-15.5 -67q0 -83 58 -85z" />
<glyph unicode="&#xc6;" horiz-adv-x="918" d="M31 -93l-14 18q41 60 45 124l26 404q8 125 78.5 189t171.5 64q40 0 106.5 -17.5t113.5 -17.5q36 0 128 14.5t130 14.5q16 0 32.5 -4.5t33.5 -24.5t17 -54q0 -24 -19.5 -43.5t-46.5 -19.5q-22 0 -41 16t-19 39q0 10 5.5 23t5.5 19q0 11 -10 11q-7 0 -56 -10.5t-105.5 -18 t-88.5 -1.5v-2q5 -3 13 -33t13 -76t-2 -100l-5 -58h98l6 79q1 24 23 24h58q24 0 22 -23l-15 -191q-2 -26 -26 -26h-52q-25 0 -23 25l5 79h-99l-16 -209q-2 -21 -4 -35t-4 -18l-1 -4v-2q37 7 139.5 -14.5t105.5 -21.5q10 0 10 11q0 6 -6 19.5t-6 23.5q0 23 19 39t41 16 q27 0 46.5 -19.5t19.5 -43.5q0 -35 -25.5 -60t-57.5 -25q-46 0 -137.5 19t-140.5 19q-94 0 -157 -28l-16 30q24 11 33 18t18.5 34.5t13.5 81.5l6 86h-234l-4 -56q-9 -130 -38.5 -183.5t-113.5 -100.5zM189 280h234l14 191q7 94 -19.5 149.5t-80.5 55.5q-44 0 -75 -38 t-44.5 -87.5t-17.5 -108.5z" />
<glyph unicode="&#xc7;" horiz-adv-x="622" d="M325 -263l-15 20q11 8 22 28t11 36q0 17 -13.5 26t-54.5 9q-63 0 -63 49q0 15 9 36l25 58q-95 29 -148 121t-53 217q0 71 18 135t54 117.5t98 85t142 31.5q109 0 170 -56.5t61 -116.5q0 -30 -18 -49t-46 -19t-46.5 19.5t-18.5 46.5q0 20 12.5 36.5t26.5 19.5q12 3 12 14 q0 21 -36 44t-95 23q-72 0 -122 -51t-71.5 -123t-21.5 -155q0 -69 20 -130.5t64.5 -104t104.5 -42.5q46 0 99 25t99 71l22 -15q-50 -78 -115.5 -116.5t-133.5 -38.5q-20 0 -39 3q-11 -29 -11 -33q0 -11 18 -11q129 0 129 -78q0 -32 -26.5 -67.5t-69.5 -64.5z" />
<glyph unicode="&#xc8;" horiz-adv-x="596" d="M40 -4l-16 30q1 1 8.5 4t10.5 4.5t10 5.5t10.5 7.5t9 10t8 13t5 15.5t3.5 20l35 480q1 12 -0.5 22t-6 18t-8.5 13t-12 10t-11.5 7t-12.5 5.5t-10 4.5l16 30q18 -9 67.5 -18.5t87.5 -9.5q48 0 124 17t135 17q38 0 60.5 -24t22.5 -61q0 -24 -19.5 -43.5t-46.5 -19.5 q-22 0 -41 16t-19 39q0 16 7 27.5t7 16.5q0 10 -12 10q-2 0 -86 -18t-138 -14v-2q1 -1 3 -4t4 -17.5t1 -35.5l-15 -206h98l6 76q1 24 23 24h58q24 0 22 -23l-15 -191q-2 -26 -26 -26h-52q-25 0 -23 25l5 76h-99l-17 -207q-4 -47 -12 -57v-2q60 4 153.5 -15.5t94.5 -19.5 q12 0 12 11q0 5 -7 16t-7 27q0 23 19 39t41 16q27 0 46.5 -19.5t19.5 -43.5q0 -35 -25.5 -60t-57.5 -25q-58 0 -141 18.5t-140 18.5q-101 0 -157 -28zM186 993h104q10 -49 16 -72.5t21 -54.5t40 -50.5t63 -34.5l-8 -26q-32 -1 -71 13t-76.5 41t-63 75.5t-25.5 108.5z" />
<glyph unicode="&#xc9;" horiz-adv-x="596" d="M40 -4l-16 30q1 1 8.5 4t10.5 4.5t10 5.5t10.5 7.5t9 10t8 13t5 15.5t3.5 20l35 480q1 12 -0.5 22t-6 18t-8.5 13t-12 10t-11.5 7t-12.5 5.5t-10 4.5l16 30q18 -9 67.5 -18.5t87.5 -9.5q48 0 124 17t135 17q38 0 60.5 -24t22.5 -61q0 -24 -19.5 -43.5t-46.5 -19.5 q-22 0 -41 16t-19 39q0 16 7 27.5t7 16.5q0 10 -12 10q-2 0 -86 -18t-138 -14v-2q1 -1 3 -4t4 -17.5t1 -35.5l-15 -206h98l6 76q1 24 23 24h58q24 0 22 -23l-15 -191q-2 -26 -26 -26h-52q-25 0 -23 25l5 76h-99l-17 -207q-4 -47 -12 -57v-2q60 4 153.5 -15.5t94.5 -19.5 q12 0 12 11q0 5 -7 16t-7 27q0 23 19 39t41 16q27 0 46.5 -19.5t19.5 -43.5q0 -35 -25.5 -60t-57.5 -25q-58 0 -141 18.5t-140 18.5q-101 0 -157 -28zM214 755l-8 26q38 15 63 34.5t40 50.5t21 54.5t16 72.5h104q0 -60 -25.5 -108.5t-63 -75.5t-76.5 -41t-71 -13z" />
<glyph unicode="&#xca;" horiz-adv-x="596" d="M40 -4l-16 30q1 1 8.5 4t10.5 4.5t10 5.5t10.5 7.5t9 10t8 13t5 15.5t3.5 20l35 480q1 12 -0.5 22t-6 18t-8.5 13t-12 10t-11.5 7t-12.5 5.5t-10 4.5l16 30q18 -9 67.5 -18.5t87.5 -9.5q48 0 124 17t135 17q38 0 60.5 -24t22.5 -61q0 -24 -19.5 -43.5t-46.5 -19.5 q-22 0 -41 16t-19 39q0 16 7 27.5t7 16.5q0 10 -12 10q-2 0 -86 -18t-138 -14v-2q1 -1 3 -4t4 -17.5t1 -35.5l-15 -206h98l6 76q1 24 23 24h58q24 0 22 -23l-15 -191q-2 -26 -26 -26h-52q-25 0 -23 25l5 76h-99l-17 -207q-4 -47 -12 -57v-2q60 4 153.5 -15.5t94.5 -19.5 q12 0 12 11q0 5 -7 16t-7 27q0 23 19 39t41 16q27 0 46.5 -19.5t19.5 -43.5q0 -35 -25.5 -60t-57.5 -25q-58 0 -141 18.5t-140 18.5q-101 0 -157 -28zM136 755l-21 32q38 29 82 85.5t69 120.5h124q25 -64 69 -120.5t82 -85.5l-21 -32l-191 139h-2z" />
<glyph unicode="&#xcb;" horiz-adv-x="596" d="M40 -4l-16 30q1 1 8.5 4t10.5 4.5t10 5.5t10.5 7.5t9 10t8 13t5 15.5t3.5 20l35 480q1 12 -0.5 22t-6 18t-8.5 13t-12 10t-11.5 7t-12.5 5.5t-10 4.5l16 30q18 -9 67.5 -18.5t87.5 -9.5q48 0 124 17t135 17q38 0 60.5 -24t22.5 -61q0 -24 -19.5 -43.5t-46.5 -19.5 q-22 0 -41 16t-19 39q0 16 7 27.5t7 16.5q0 10 -12 10q-2 0 -86 -18t-138 -14v-2q1 -1 3 -4t4 -17.5t1 -35.5l-15 -206h98l6 76q1 24 23 24h58q24 0 22 -23l-15 -191q-2 -26 -26 -26h-52q-25 0 -23 25l5 76h-99l-17 -207q-4 -47 -12 -57v-2q60 4 153.5 -15.5t94.5 -19.5 q12 0 12 11q0 5 -7 16t-7 27q0 23 19 39t41 16q27 0 46.5 -19.5t19.5 -43.5q0 -35 -25.5 -60t-57.5 -25q-58 0 -141 18.5t-140 18.5q-101 0 -157 -28zM218 803q-31 0 -52 21t-21 52q0 30 21 51.5t52 21.5q30 0 51.5 -21.5t21.5 -51.5q0 -31 -21.5 -52t-51.5 -21zM438 803 q-31 0 -52 21t-21 52q0 30 21 51.5t52 21.5q30 0 51.5 -21.5t21.5 -51.5q0 -31 -21.5 -52t-51.5 -21z" />
<glyph unicode="&#xcc;" horiz-adv-x="323" d="M86 64l40 536q4 48 -32 48l-49 -8l-9 26l103 31q28 9 48 9q29 0 42.5 -23.5t11.5 -53.5l-40 -537q-4 -47 32 -47l49 7l9 -26l-103 -31q-28 -9 -51 -9q-29 0 -41.5 23.5t-9.5 54.5zM40 993h104q10 -49 16 -72.5t21 -54.5t40 -50.5t63 -34.5l-8 -26q-32 -1 -71 13t-76.5 41 t-63 75.5t-25.5 108.5z" />
<glyph unicode="&#xcd;" horiz-adv-x="323" d="M86 64l40 536q4 48 -32 48l-49 -8l-9 26l103 31q28 9 48 9q29 0 42.5 -23.5t11.5 -53.5l-40 -537q-4 -47 32 -47l49 7l9 -26l-103 -31q-28 -9 -51 -9q-29 0 -41.5 23.5t-9.5 54.5zM48 755l-8 26q38 15 63 34.5t40 50.5t21 54.5t16 72.5h104q0 -60 -25.5 -108.5t-63 -75.5 t-76.5 -41t-71 -13z" />
<glyph unicode="&#xce;" horiz-adv-x="323" d="M86 64l40 536q4 48 -32 48l-49 -8l-9 26l103 31q28 9 48 9q29 0 42.5 -23.5t11.5 -53.5l-40 -537q-4 -47 32 -47l49 7l9 -26l-103 -31q-28 -9 -51 -9q-29 0 -41.5 23.5t-9.5 54.5zM-16 755l-21 32q38 29 82 85.5t69 120.5h124q25 -64 69 -120.5t82 -85.5l-21 -32 l-191 139h-2z" />
<glyph unicode="&#xcf;" horiz-adv-x="323" d="M86 64l40 536q4 48 -32 48l-49 -8l-9 26l103 31q28 9 48 9q29 0 42.5 -23.5t11.5 -53.5l-40 -537q-4 -47 32 -47l49 7l9 -26l-103 -31q-28 -9 -51 -9q-29 0 -41.5 23.5t-9.5 54.5zM62 803q-31 0 -52 21t-21 52q0 30 21 51.5t52 21.5q30 0 51.5 -21.5t21.5 -51.5 q0 -31 -21.5 -52t-51.5 -21zM282 803q-31 0 -52 21t-21 52q0 30 21 51.5t52 21.5q30 0 51.5 -21.5t21.5 -51.5q0 -31 -21.5 -52t-51.5 -21z" />
<glyph unicode="&#xd0;" horiz-adv-x="686" d="M81 0l24 327h-62l1 9q0 8 1 16l1 9h61l16 212q2 26 -12.5 39.5t-42.5 10.5l-7 22q141 62 239 62q169 0 255 -92.5t86 -255.5q0 -68 -16.5 -131t-50.5 -119t-95 -90t-140 -34q-41 0 -73.5 14t-75.5 44l-27 -43h-82zM237 606l-17 -245h182l-4 -34h-180l-17 -248 q55 -48 110 -48q57 0 99.5 35t64 90.5t31.5 109t10 104.5q0 149 -68 226.5t-157 77.5q-32 0 -76 -11q3 -2 7 -6t10 -18.5t5 -32.5z" />
<glyph unicode="&#xd1;" horiz-adv-x="678" d="M83 0l42 600q4 48 -32 48l-49 -8l-9 26l103 31q28 9 48 9q29 0 43 -24t12 -53l-32 -429h2l166 417q18 45 52 68t73 23q98 0 89 -142l-34 -468q-2 -43 31 -43q16 0 36 9.5t29 19.5l22 -19q-86 -80 -150 -80q-37 0 -61 31.5t-19 85.5l31 445q2 17 -4.5 37t-26.5 20 q-24 0 -38 -34l-229 -570h-95zM208 817l-22 -13q-19 41 -19 87t22 76t62 30q39 0 110 -41.5t94 -41.5q40 0 40 63q0 14 -1 21l21 12q16 -38 16 -79q0 -48 -22.5 -79.5t-60.5 -31.5q-34 0 -96 40.5t-94 40.5q-24 0 -38.5 -17.5t-14.5 -44.5q0 -10 3 -22z" />
<glyph unicode="&#xd2;" horiz-adv-x="664" d="M317 -15q-122 0 -197 97t-75 248q0 51 9.5 102t32 101.5t55 88.5t83 61.5t111.5 23.5q135 0 209 -99.5t74 -245.5q0 -45 -6.5 -90.5t-27 -99t-52 -93.5t-87.5 -67t-129 -27zM165 316q0 -34 2.5 -66.5t12.5 -76t25.5 -75t45 -54t68.5 -22.5q47 0 82.5 31.5t55 83t30 101.5 t13.5 103l1 43q0 42 -6.5 86t-22 93t-49.5 79.5t-81 30.5q-46 0 -81 -30.5t-54 -81.5t-28.5 -101.5t-12.5 -105.5zM209 993h104q10 -49 16 -72.5t21 -54.5t40 -50.5t63 -34.5l-8 -26q-32 -1 -71 13t-76.5 41t-63 75.5t-25.5 108.5z" />
<glyph unicode="&#xd3;" horiz-adv-x="664" d="M317 -15q-122 0 -197 97t-75 248q0 51 9.5 102t32 101.5t55 88.5t83 61.5t111.5 23.5q135 0 209 -99.5t74 -245.5q0 -45 -6.5 -90.5t-27 -99t-52 -93.5t-87.5 -67t-129 -27zM165 316q0 -34 2.5 -66.5t12.5 -76t25.5 -75t45 -54t68.5 -22.5q47 0 82.5 31.5t55 83t30 101.5 t13.5 103l1 43q0 42 -6.5 86t-22 93t-49.5 79.5t-81 30.5q-46 0 -81 -30.5t-54 -81.5t-28.5 -101.5t-12.5 -105.5zM217 755l-8 26q38 15 63 34.5t40 50.5t21 54.5t16 72.5h104q0 -60 -25.5 -108.5t-63 -75.5t-76.5 -41t-71 -13z" />
<glyph unicode="&#xd4;" horiz-adv-x="664" d="M317 -15q-122 0 -197 97t-75 248q0 51 9.5 102t32 101.5t55 88.5t83 61.5t111.5 23.5q135 0 209 -99.5t74 -245.5q0 -45 -6.5 -90.5t-27 -99t-52 -93.5t-87.5 -67t-129 -27zM165 316q0 -34 2.5 -66.5t12.5 -76t25.5 -75t45 -54t68.5 -22.5q47 0 82.5 31.5t55 83t30 101.5 t13.5 103l1 43q0 42 -6.5 86t-22 93t-49.5 79.5t-81 30.5q-46 0 -81 -30.5t-54 -81.5t-28.5 -101.5t-12.5 -105.5zM139 755l-21 32q38 29 82 85.5t69 120.5h124q25 -64 69 -120.5t82 -85.5l-21 -32l-191 139h-2z" />
<glyph unicode="&#xd5;" horiz-adv-x="664" d="M317 -15q-122 0 -197 97t-75 248q0 51 9.5 102t32 101.5t55 88.5t83 61.5t111.5 23.5q135 0 209 -99.5t74 -245.5q0 -45 -6.5 -90.5t-27 -99t-52 -93.5t-87.5 -67t-129 -27zM165 316q0 -34 2.5 -66.5t12.5 -76t25.5 -75t45 -54t68.5 -22.5q47 0 82.5 31.5t55 83t30 101.5 t13.5 103l1 43q0 42 -6.5 86t-22 93t-49.5 79.5t-81 30.5q-46 0 -81 -30.5t-54 -81.5t-28.5 -101.5t-12.5 -105.5zM190 817l-22 -13q-19 41 -19 87t22 76t62 30q39 0 110 -41.5t94 -41.5q40 0 40 63q0 14 -1 21l21 12q16 -38 16 -79q0 -48 -22.5 -79.5t-60.5 -31.5 q-34 0 -96 40.5t-94 40.5q-24 0 -38.5 -17.5t-14.5 -44.5q0 -10 3 -22z" />
<glyph unicode="&#xd6;" horiz-adv-x="664" d="M317 -15q-122 0 -197 97t-75 248q0 51 9.5 102t32 101.5t55 88.5t83 61.5t111.5 23.5q135 0 209 -99.5t74 -245.5q0 -45 -6.5 -90.5t-27 -99t-52 -93.5t-87.5 -67t-129 -27zM165 316q0 -34 2.5 -66.5t12.5 -76t25.5 -75t45 -54t68.5 -22.5q47 0 82.5 31.5t55 83t30 101.5 t13.5 103l1 43q0 42 -6.5 86t-22 93t-49.5 79.5t-81 30.5q-46 0 -81 -30.5t-54 -81.5t-28.5 -101.5t-12.5 -105.5zM221 803q-31 0 -52 21t-21 52q0 30 21 51.5t52 21.5q30 0 51.5 -21.5t21.5 -51.5q0 -31 -21.5 -52t-51.5 -21zM441 803q-31 0 -52 21t-21 52q0 30 21 51.5 t52 21.5q30 0 51.5 -21.5t21.5 -51.5q0 -31 -21.5 -52t-51.5 -21z" />
<glyph unicode="&#xd7;" d="M81 83l155 156l-126 126q-28 28 -28 40t10.5 21.5t18 12.5l23.5 9l156 -156l126 127q28 28 40 28t21.5 -10.5t12.5 -18l9 -23.5l-156 -156l127 -126q28 -28 28 -40t-10.5 -21.5t-18 -12.5l-23.5 -9l-156 155l-126 -126q-28 -28 -40 -28t-21.5 10.5t-12.5 18z" />
<glyph unicode="&#xd8;" horiz-adv-x="664" d="M237 -92l14 86q-94 25 -150 116t-56 220q0 51 9.5 102t32 101.5t55 88.5t83 61.5t111.5 23.5q13 0 37 -2l14 79l43 -8l-15 -80q98 -28 151 -120t53 -214q0 -45 -6.5 -90.5t-27 -99t-52 -93.5t-87.5 -67t-129 -27q-4 0 -12 0.5t-11 0.5l-14 -84zM165 316q0 -34 2.5 -67 t12.5 -76.5t25.5 -76t45 -55t68.5 -22.5q47 0 82.5 32t55 84t30 102.5t13.5 103.5l1 43q0 43 -6.5 86.5t-22 92.5t-49.5 80t-81 31q-46 0 -81 -30.5t-54 -81.5t-28.5 -102t-12.5 -106z" />
<glyph unicode="&#xd9;" horiz-adv-x="659" d="M98 224l26 376q2 48 -32 48l-49 -8l-9 26l103 31q32 9 48 9q29 0 42.5 -23.5t11.5 -53.5l-29 -403q-4 -30 0 -66t13 -67t32.5 -51.5t57.5 -20.5t58 19.5t36 56t17.5 66t8.5 70.5l16 214q6 116 20 174t43 93.5t92 71.5l15 -18q-1 0 -11 -17t-21.5 -47.5t-13.5 -59.5 l-30 -423q-9 -117 -64 -176t-172 -59q-98 0 -157 65.5t-52 172.5zM207 993h104q10 -49 16 -72.5t21 -54.5t40 -50.5t63 -34.5l-8 -26q-32 -1 -71 13t-76.5 41t-63 75.5t-25.5 108.5z" />
<glyph unicode="&#xda;" horiz-adv-x="659" d="M98 224l26 376q2 48 -32 48l-49 -8l-9 26l103 31q32 9 48 9q29 0 42.5 -23.5t11.5 -53.5l-29 -403q-4 -30 0 -66t13 -67t32.5 -51.5t57.5 -20.5t58 19.5t36 56t17.5 66t8.5 70.5l16 214q6 116 20 174t43 93.5t92 71.5l15 -18q-1 0 -11 -17t-21.5 -47.5t-13.5 -59.5 l-30 -423q-9 -117 -64 -176t-172 -59q-98 0 -157 65.5t-52 172.5zM255 755l-8 26q38 15 63 34.5t40 50.5t21 54.5t16 72.5h104q0 -60 -25.5 -108.5t-63 -75.5t-76.5 -41t-71 -13z" />
<glyph unicode="&#xdb;" horiz-adv-x="659" d="M98 224l26 376q2 48 -32 48l-49 -8l-9 26l103 31q32 9 48 9q29 0 42.5 -23.5t11.5 -53.5l-29 -403q-4 -30 0 -66t13 -67t32.5 -51.5t57.5 -20.5t58 19.5t36 56t17.5 66t8.5 70.5l16 214q6 116 20 174t43 93.5t92 71.5l15 -18q-1 0 -11 -17t-21.5 -47.5t-13.5 -59.5 l-30 -423q-9 -117 -64 -176t-172 -59q-98 0 -157 65.5t-52 172.5zM137 755l-21 32q38 29 82 85.5t69 120.5h124q25 -64 69 -120.5t82 -85.5l-21 -32l-191 139h-2z" />
<glyph unicode="&#xdc;" horiz-adv-x="659" d="M98 224l26 376q2 48 -32 48l-49 -8l-9 26l103 31q32 9 48 9q29 0 42.5 -23.5t11.5 -53.5l-29 -403q-4 -30 0 -66t13 -67t32.5 -51.5t57.5 -20.5t58 19.5t36 56t17.5 66t8.5 70.5l16 214q6 116 20 174t43 93.5t92 71.5l15 -18q-1 0 -11 -17t-21.5 -47.5t-13.5 -59.5 l-30 -423q-9 -117 -64 -176t-172 -59q-98 0 -157 65.5t-52 172.5zM229 803q-31 0 -52 21t-21 52q0 30 21 51.5t52 21.5q30 0 51.5 -21.5t21.5 -51.5q0 -31 -21.5 -52t-51.5 -21zM449 803q-31 0 -52 21t-21 52q0 30 21 51.5t52 21.5q30 0 51.5 -21.5t21.5 -51.5 q0 -31 -21.5 -52t-51.5 -21z" />
<glyph unicode="&#xdd;" horiz-adv-x="618" d="M235 64l12 171l-95 329q-15 71 -55 71q-20 0 -48 -23l-21 17q74 79 131 79q74 0 102 -117l71 -251h2q50 205 98 289t122 84q30 0 53.5 -19.5t23.5 -52.5q0 -27 -18 -47t-47 -20q-52 0 -58 60q-1 11 -12 11q-17 0 -62 -130.5t-77 -271.5l-10 -151q-2 -47 32 -47l49 7 l9 -26l-103 -31q-28 -9 -48 -9q-29 0 -41.5 23.5t-9.5 54.5zM219 755l-8 26q38 15 63 34.5t40 50.5t21 54.5t16 72.5h104q0 -60 -25.5 -108.5t-63 -75.5t-76.5 -41t-71 -13z" />
<glyph unicode="&#xde;" horiz-adv-x="593" d="M201 92q0 -14 1.5 -23t9 -16.5t21.5 -7.5l46 7l9 -26l-103 -31q-28 -9 -48 -9q-51 0 -51 78l38 536q3 48 -32 48l-49 -8l-9 26l103 31q28 9 48 9q26 0 39.5 -20.5t14.5 -48.5q59 15 106 15q105 0 168 -56.5t63 -165.5q0 -80 -56 -139t-135 -59q-96 0 -170 42zM237 609 l-20 -304q42 -22 80 -22q171 0 171 157q0 72 -45 122.5t-136 50.5q-26 0 -50 -4z" />
<glyph unicode="&#xdf;" horiz-adv-x="608" d="M30 -105l-14 18q41 60 45 124l26 398h-43l3 34h42q4 47 19.5 87.5t42 75t70 54.5t98.5 20q94 0 165 -50t71 -145q0 -77 -54 -114t-142 -42v-2q38 -6 70.5 -17.5t63.5 -31.5t49 -52.5t18 -73.5q0 -86 -63.5 -139.5t-154.5 -53.5q-72 0 -135 37l18 30q42 -25 78 -25 q59 0 96 41.5t37 109.5q0 66 -54.5 113.5t-107.5 47.5l3 30q77 0 119.5 42.5t42.5 100.5q0 64 -28 111.5t-91 47.5q-107 0 -118 -208q-5 -62 -12 -165q-4 -53 -5.5 -77t-5 -63t-6.5 -55l-8 -43.5t-10.5 -38.5l-14.5 -30t-18.5 -28l-24 -22.5t-30.5 -23.5t-37 -22z" />
<glyph unicode="&#xe0;" horiz-adv-x="568" d="M229 -15q-87 0 -137.5 69.5t-50.5 163.5q0 116 68.5 192t145.5 76q58 0 115 -54h2l18 37h93q-29 -358 -29 -363q0 -48 38 -48q31 0 61 30l22 -21q-80 -82 -150 -82q-55 0 -74 57h-2q-64 -57 -120 -57zM342 75q-1 9 -1 30q0 2 4.5 59.5l10 129t7.5 101.5q-39 39 -76 39 q-51 0 -89.5 -63t-38.5 -157q0 -78 29 -127t71 -49q43 0 83 37zM157 767h104q10 -49 16 -72.5t21 -54.5t40 -50.5t63 -34.5l-8 -26q-32 -1 -71 13t-76.5 41t-63 75.5t-25.5 108.5z" />
<glyph unicode="&#xe1;" horiz-adv-x="568" d="M229 -15q-87 0 -137.5 69.5t-50.5 163.5q0 116 68.5 192t145.5 76q58 0 115 -54h2l18 37h93q-29 -358 -29 -363q0 -48 38 -48q31 0 61 30l22 -21q-80 -82 -150 -82q-55 0 -74 57h-2q-64 -57 -120 -57zM342 75q-1 9 -1 30q0 2 4.5 59.5l10 129t7.5 101.5q-39 39 -76 39 q-51 0 -89.5 -63t-38.5 -157q0 -78 29 -127t71 -49q43 0 83 37zM175 529l-8 26q38 15 63 34.5t40 50.5t21 54.5t16 72.5h104q0 -60 -25.5 -108.5t-63 -75.5t-76.5 -41t-71 -13z" />
<glyph unicode="&#xe2;" horiz-adv-x="568" d="M229 -15q-87 0 -137.5 69.5t-50.5 163.5q0 116 68.5 192t145.5 76q58 0 115 -54h2l18 37h93q-29 -358 -29 -363q0 -48 38 -48q31 0 61 30l22 -21q-80 -82 -150 -82q-55 0 -74 57h-2q-64 -57 -120 -57zM342 75q-1 9 -1 30q0 2 4.5 59.5l10 129t7.5 101.5q-39 39 -76 39 q-51 0 -89.5 -63t-38.5 -157q0 -78 29 -127t71 -49q43 0 83 37zM112 529l-21 32q38 29 82 85.5t69 120.5h124q25 -64 69 -120.5t82 -85.5l-21 -32l-191 139h-2z" />
<glyph unicode="&#xe3;" horiz-adv-x="568" d="M229 -15q-87 0 -137.5 69.5t-50.5 163.5q0 116 68.5 192t145.5 76q58 0 115 -54h2l18 37h93q-29 -358 -29 -363q0 -48 38 -48q31 0 61 30l22 -21q-80 -82 -150 -82q-55 0 -74 57h-2q-64 -57 -120 -57zM342 75q-1 9 -1 30q0 2 4.5 59.5l10 129t7.5 101.5q-39 39 -76 39 q-51 0 -89.5 -63t-38.5 -157q0 -78 29 -127t71 -49q43 0 83 37zM153 591l-22 -13q-19 41 -19 87t22 76t62 30q39 0 110 -41.5t94 -41.5q40 0 40 63q0 14 -1 21l21 12q16 -38 16 -79q0 -48 -22.5 -79.5t-60.5 -31.5q-35 0 -97 40.5t-93 40.5q-24 0 -38.5 -17.5t-14.5 -44.5 q0 -10 3 -22z" />
<glyph unicode="&#xe4;" horiz-adv-x="568" d="M229 -15q-87 0 -137.5 69.5t-50.5 163.5q0 116 68.5 192t145.5 76q58 0 115 -54h2l18 37h93q-29 -358 -29 -363q0 -48 38 -48q31 0 61 30l22 -21q-80 -82 -150 -82q-55 0 -74 57h-2q-64 -57 -120 -57zM342 75q-1 9 -1 30q0 2 4.5 59.5l10 129t7.5 101.5q-39 39 -76 39 q-51 0 -89.5 -63t-38.5 -157q0 -78 29 -127t71 -49q43 0 83 37zM195 577q-31 0 -52 21t-21 52q0 30 21 51.5t52 21.5q30 0 51.5 -21.5t21.5 -51.5q0 -31 -21.5 -52t-51.5 -21zM415 577q-31 0 -52 21t-21 52q0 30 21 51.5t52 21.5q30 0 51.5 -21.5t21.5 -51.5 q0 -31 -21.5 -52t-51.5 -21z" />
<glyph unicode="&#xe5;" horiz-adv-x="568" d="M229 -15q-87 0 -137.5 69.5t-50.5 163.5q0 116 68.5 192t145.5 76q58 0 115 -54h2l18 37h93q-29 -358 -29 -363q0 -48 38 -48q31 0 61 30l22 -21q-80 -82 -150 -82q-55 0 -74 57h-2q-64 -57 -120 -57zM342 75q-1 9 -1 30q0 2 4.5 59.5l10 129t7.5 101.5q-39 39 -76 39 q-51 0 -89.5 -63t-38.5 -157q0 -78 29 -127t71 -49q43 0 83 37zM153 658q0 53 40.5 85.5t99.5 32.5q56 0 98.5 -31t46.5 -87q-1 -54 -40.5 -86.5t-98.5 -32.5q-57 0 -101.5 31.5t-44.5 87.5zM296 568q54 0 56 93q0 87 -54 87q-30 0 -44.5 -28t-15.5 -67q0 -83 58 -85z" />
<glyph unicode="&#xe6;" horiz-adv-x="807" d="M368 432l18 37h67l13 -41h2q19 24 61.5 40.5t81.5 16.5q59 0 103.5 -31t44.5 -92q0 -69 -76 -117.5t-214 -68.5q23 -120 125 -126q55 0 127 53l17 -16q-68 -103 -185 -103q-45 0 -89 29.5t-68 64.5h-2q-35 -44 -77 -68t-81 -24q-79 0 -137 67t-58 165q0 116 67 192 t143 76q58 0 115 -54h2zM351 259q2 46 8 138q-39 39 -76 39q-50 0 -87 -63.5t-37 -158.5q0 -77 30.5 -126t75.5 -49q60 0 117 62q-36 67 -31 158zM464 205q186 51 195 173q0 28 -20 49t-50 21q-73 0 -103.5 -69.5t-21.5 -173.5z" />
<glyph unicode="&#xe7;" horiz-adv-x="477" d="M248 -263l-15 20q11 8 22 28t11 36q0 17 -13.5 26t-54.5 9q-63 0 -63 49q0 15 9 36l27 63q-59 28 -95 88.5t-36 141.5q0 105 67.5 178t162.5 73q64 0 116 -30t54 -91q-2 -29 -19 -46.5t-41 -17.5q-28 0 -44.5 17.5t-16.5 39.5q0 28 29 46q9 5 9 13q0 15 -19 27t-45 12 q-60 0 -99.5 -60.5t-39.5 -154.5q0 -84 38.5 -138t99.5 -54q56 0 118 57l18 -19q-66 -101 -170 -101q-25 0 -49 6q-12 -29 -12 -33q0 -11 18 -11q129 0 129 -78q0 -32 -26.5 -67.5t-69.5 -64.5z" />
<glyph unicode="&#xe8;" horiz-adv-x="489" d="M411 103l17 -16q-65 -102 -174 -102q-92 0 -153.5 70.5t-61.5 170.5q0 109 73 184t189 75q62 0 105 -30.5t43 -92.5q0 -129 -290 -186q23 -120 125 -126q55 0 127 53zM153 241q0 -12 2 -34q184 50 192 165q0 29 -20.5 55t-49.5 26q-63 0 -93.5 -65.5t-30.5 -146.5z M122 767h104q10 -49 16 -72.5t21 -54.5t40 -50.5t63 -34.5l-8 -26q-32 -1 -71 13t-76.5 41t-63 75.5t-25.5 108.5z" />
<glyph unicode="&#xe9;" horiz-adv-x="489" d="M411 103l17 -16q-65 -102 -174 -102q-92 0 -153.5 70.5t-61.5 170.5q0 109 73 184t189 75q62 0 105 -30.5t43 -92.5q0 -129 -290 -186q23 -120 125 -126q55 0 127 53zM153 241q0 -12 2 -34q184 50 192 165q0 29 -20.5 55t-49.5 26q-63 0 -93.5 -65.5t-30.5 -146.5z M140 529l-8 26q38 15 63 34.5t40 50.5t21 54.5t16 72.5h104q0 -60 -25.5 -108.5t-63 -75.5t-76.5 -41t-71 -13z" />
<glyph unicode="&#xea;" horiz-adv-x="489" d="M411 103l17 -16q-65 -102 -174 -102q-92 0 -153.5 70.5t-61.5 170.5q0 109 73 184t189 75q62 0 105 -30.5t43 -92.5q0 -129 -290 -186q23 -120 125 -126q55 0 127 53zM153 241q0 -12 2 -34q184 50 192 165q0 29 -20.5 55t-49.5 26q-63 0 -93.5 -65.5t-30.5 -146.5z M82 529l-21 32q38 29 82 85.5t69 120.5h124q25 -64 69 -120.5t82 -85.5l-21 -32l-191 139h-2z" />
<glyph unicode="&#xeb;" horiz-adv-x="489" d="M411 103l17 -16q-65 -102 -174 -102q-92 0 -153.5 70.5t-61.5 170.5q0 109 73 184t189 75q62 0 105 -30.5t43 -92.5q0 -129 -290 -186q23 -120 125 -126q55 0 127 53zM153 241q0 -12 2 -34q184 50 192 165q0 29 -20.5 55t-49.5 26q-63 0 -93.5 -65.5t-30.5 -146.5z M158 577q-31 0 -52 21t-21 52q0 30 21 51.5t52 21.5q30 0 51.5 -21.5t21.5 -51.5q0 -31 -21.5 -52t-51.5 -21zM378 577q-31 0 -52 21t-21 52q0 30 21 51.5t52 21.5q30 0 51.5 -21.5t21.5 -51.5q0 -31 -21.5 -52t-51.5 -21z" />
<glyph unicode="&#xec;" horiz-adv-x="323" d="M89 105l31 263q0 48 -38 48q-31 0 -61 -30l-22 21q36 37 77.5 59.5t75.5 22.5q39 0 63.5 -30t17.5 -90l-31 -263q-3 -24 8.5 -36t29.5 -12q31 0 61 30l22 -21q-36 -37 -77.5 -59.5t-75.5 -22.5q-38 0 -62 30t-19 90zM66 767h104q10 -49 16 -72.5t21 -54.5t40 -50.5 t63 -34.5l-8 -26q-32 -1 -71 13t-76.5 41t-63 75.5t-25.5 108.5z" />
<glyph unicode="&#xed;" horiz-adv-x="323" d="M89 105l31 263q0 48 -38 48q-31 0 -61 -30l-22 21q36 37 77.5 59.5t75.5 22.5q39 0 63.5 -30t17.5 -90l-31 -263q-3 -24 8.5 -36t29.5 -12q31 0 61 30l22 -21q-36 -37 -77.5 -59.5t-75.5 -22.5q-38 0 -62 30t-19 90zM45 529l-8 26q38 15 63 34.5t40 50.5t21 54.5t16 72.5 h104q0 -60 -25.5 -108.5t-63 -75.5t-76.5 -41t-71 -13z" />
<glyph unicode="&#xee;" horiz-adv-x="323" d="M89 105l31 263q0 48 -38 48q-31 0 -61 -30l-22 21q36 37 77.5 59.5t75.5 22.5q39 0 63.5 -30t17.5 -90l-31 -263q-3 -24 8.5 -36t29.5 -12q31 0 61 30l22 -21q-36 -37 -77.5 -59.5t-75.5 -22.5q-38 0 -62 30t-19 90zM-20 529l-19 32q34 29 73.5 85.5t62.5 120.5h111 q23 -64 62.5 -120.5t73.5 -85.5l-19 -32l-172 139h-1z" />
<glyph unicode="&#xef;" horiz-adv-x="323" d="M89 105l31 263q0 48 -38 48q-31 0 -61 -30l-22 21q36 37 77.5 59.5t75.5 22.5q39 0 63.5 -30t17.5 -90l-31 -263q-3 -24 8.5 -36t29.5 -12q31 0 61 30l22 -21q-36 -37 -77.5 -59.5t-75.5 -22.5q-38 0 -62 30t-19 90zM71 577q-31 0 -52 21t-21 52q0 30 21 51.5t52 21.5 q30 0 51.5 -21.5t21.5 -51.5q0 -31 -21.5 -52t-51.5 -21zM291 577q-31 0 -52 21t-21 52q0 30 21 51.5t52 21.5q30 0 51.5 -21.5t21.5 -51.5q0 -31 -21.5 -52t-51.5 -21z" />
<glyph unicode="&#xf0;" horiz-adv-x="586" d="M208 605l53 58q-64 40 -188 59l5 24q129 -9 215 -48l58 64l23 -26l-50 -54q169 -99 146 -348l-12 -151q-6 -97 -66 -146.5t-140 -49.5q-85 0 -148 61.5t-63 169.5q0 116 66.5 192t142.5 76q61 0 111 -50h2q3 140 -74 207l-58 -64zM359 394q-38 40 -78 40q-50 0 -86 -62.5 t-36 -157.5q0 -91 27.5 -140.5t65.5 -49.5q37 0 63 41.5t30 125.5z" />
<glyph unicode="&#xf1;" horiz-adv-x="598" d="M88 0l25 363q1 25 -10 37.5t-28 12.5q-29 0 -61 -32l-22 21q36 37 77.5 59.5t75.5 22.5q62 0 76 -78h2q39 37 88.5 58t89.5 21q110 0 100 -142l-17 -237q0 -49 38 -49q30 0 61 31l22 -21q-36 -37 -77.5 -59.5t-75.5 -22.5q-45 0 -63.5 34.5t-15.5 86.5l15 234 q4 81 -47 81q-47 0 -115 -54q0 -25 -1 -35q-19 -283 -24 -332h-113zM168 591l-22 -13q-19 41 -19 87t22 76t62 30q39 0 110 -41.5t94 -41.5q40 0 40 63q0 14 -1 21l21 12q16 -38 16 -79q0 -48 -22.5 -79.5t-60.5 -31.5q-34 0 -96 40.5t-94 40.5q-24 0 -38.5 -17.5 t-14.5 -44.5q0 -10 3 -22z" />
<glyph unicode="&#xf2;" horiz-adv-x="537" d="M40 229q0 103 63 179.5t166 76.5q102 0 165 -72t63 -173q0 -99 -63.5 -177t-165.5 -78q-96 0 -162 70.5t-66 173.5zM262 22q34 0 58.5 24t37 62t18 73t5.5 70v5q0 82 -27 137.5t-78 55.5q-33 0 -57 -23.5t-36.5 -61t-18 -72.5t-6.5 -70v1q0 -84 26.5 -142.5t77.5 -58.5z M142 767h104q10 -49 16 -72.5t21 -54.5t40 -50.5t63 -34.5l-8 -26q-32 -1 -71 13t-76.5 41t-63 75.5t-25.5 108.5z" />
<glyph unicode="&#xf3;" horiz-adv-x="537" d="M40 229q0 103 63 179.5t166 76.5q102 0 165 -72t63 -173q0 -99 -63.5 -177t-165.5 -78q-96 0 -162 70.5t-66 173.5zM262 22q34 0 58.5 24t37 62t18 73t5.5 70v5q0 82 -27 137.5t-78 55.5q-33 0 -57 -23.5t-36.5 -61t-18 -72.5t-6.5 -70v1q0 -84 26.5 -142.5t77.5 -58.5z M150 529l-8 26q38 15 63 34.5t40 50.5t21 54.5t16 72.5h104q0 -60 -25.5 -108.5t-63 -75.5t-76.5 -41t-71 -13z" />
<glyph unicode="&#xf4;" horiz-adv-x="537" d="M40 229q0 103 63 179.5t166 76.5q102 0 165 -72t63 -173q0 -99 -63.5 -177t-165.5 -78q-96 0 -162 70.5t-66 173.5zM262 22q34 0 58.5 24t37 62t18 73t5.5 70v5q0 82 -27 137.5t-78 55.5q-33 0 -57 -23.5t-36.5 -61t-18 -72.5t-6.5 -70v1q0 -84 26.5 -142.5t77.5 -58.5z M77 529l-21 32q38 29 82 85.5t69 120.5h124q25 -64 69 -120.5t82 -85.5l-21 -32l-191 139h-2z" />
<glyph unicode="&#xf5;" horiz-adv-x="537" d="M40 229q0 103 63 179.5t166 76.5q102 0 165 -72t63 -173q0 -99 -63.5 -177t-165.5 -78q-96 0 -162 70.5t-66 173.5zM262 22q34 0 58.5 24t37 62t18 73t5.5 70v5q0 82 -27 137.5t-78 55.5q-33 0 -57 -23.5t-36.5 -61t-18 -72.5t-6.5 -70v1q0 -84 26.5 -142.5t77.5 -58.5z M138 591l-22 -13q-19 41 -19 87t22 76t62 30q39 0 110 -41.5t94 -41.5q40 0 40 63q0 14 -1 21l21 12q16 -38 16 -79q0 -48 -22.5 -79.5t-60.5 -31.5q-34 0 -96 40.5t-94 40.5q-24 0 -38.5 -17.5t-14.5 -44.5q0 -10 3 -22z" />
<glyph unicode="&#xf6;" horiz-adv-x="537" d="M40 229q0 103 63 179.5t166 76.5q102 0 165 -72t63 -173q0 -99 -63.5 -177t-165.5 -78q-96 0 -162 70.5t-66 173.5zM262 22q34 0 58.5 24t37 62t18 73t5.5 70v5q0 82 -27 137.5t-78 55.5q-33 0 -57 -23.5t-36.5 -61t-18 -72.5t-6.5 -70v1q0 -84 26.5 -142.5t77.5 -58.5z M178 577q-31 0 -52 21t-21 52q0 30 21 51.5t52 21.5q30 0 51.5 -21.5t21.5 -51.5q0 -31 -21.5 -52t-51.5 -21zM398 577q-31 0 -52 21t-21 52q0 30 21 51.5t52 21.5q30 0 51.5 -21.5t21.5 -51.5q0 -31 -21.5 -52t-51.5 -21z" />
<glyph unicode="&#xf7;" d="M273 -15q-34 0 -57 23t-23 57q0 33 23 56.5t57 23.5q33 0 56.5 -23.5t23.5 -56.5q0 -34 -23.5 -57t-56.5 -23zM303 357q-34 0 -57 23t-23 57q0 33 23 56.5t57 23.5q33 0 56.5 -23.5t23.5 -56.5q0 -34 -23.5 -57t-56.5 -23zM46 283h446q18 0 24.5 -0.5t16.5 -3.5t13 -11.5 t2 -23.5l-14 -37h-446q-18 0 -24.5 0.5t-16.5 3.5t-13 11.5t-2 23.5z" />
<glyph unicode="&#xf8;" horiz-adv-x="537" d="M37 228q0 106 60 181.5t172 75.5q3 0 9.5 -0.5t9.5 -0.5l14 80l44 -7l-14 -81q76 -21 120.5 -87t44.5 -149q0 -109 -70.5 -184t-179.5 -70l-13 -76l-44 7l13 78q-72 14 -119 81t-47 152zM262 22q34 0 58.5 24t37 62t18 73t5.5 70v5q0 82 -27 137.5t-78 55.5 q-33 0 -57 -23.5t-36.5 -61t-18 -72.5t-6.5 -70v1q0 -84 26.5 -142.5t77.5 -58.5z" />
<glyph unicode="&#xf9;" horiz-adv-x="593" d="M96 126l18 237q1 24 -10 36t-28 12q-31 0 -61 -30l-22 21q36 37 77.5 59.5t75.5 22.5q41 0 60.5 -27t19 -62.5t-1.5 -69.5l-15 -196q-3 -33 8 -57t39 -24q39 0 109 54v5l26 366h113l-26 -367q0 -24 10.5 -37t27.5 -13q29 0 61 32l22 -21q-36 -37 -77.5 -59.5t-75.5 -22.5 q-63 0 -77 77h-2q-93 -78 -171 -78q-60 0 -82.5 40t-17.5 102zM169 767h104q10 -49 16 -72.5t21 -54.5t40 -50.5t63 -34.5l-8 -26q-32 -1 -71 13t-76.5 41t-63 75.5t-25.5 108.5z" />
<glyph unicode="&#xfa;" horiz-adv-x="593" d="M96 126l18 237q1 24 -10 36t-28 12q-31 0 -61 -30l-22 21q36 37 77.5 59.5t75.5 22.5q41 0 60.5 -27t19 -62.5t-1.5 -69.5l-15 -196q-3 -33 8 -57t39 -24q39 0 109 54v5l26 366h113l-26 -367q0 -24 10.5 -37t27.5 -13q29 0 61 32l22 -21q-36 -37 -77.5 -59.5t-75.5 -22.5 q-63 0 -77 77h-2q-93 -78 -171 -78q-60 0 -82.5 40t-17.5 102zM178 529l-8 26q38 15 63 34.5t40 50.5t21 54.5t16 72.5h104q0 -60 -25.5 -108.5t-63 -75.5t-76.5 -41t-71 -13z" />
<glyph unicode="&#xfb;" horiz-adv-x="593" d="M96 126l18 237q1 24 -10 36t-28 12q-31 0 -61 -30l-22 21q36 37 77.5 59.5t75.5 22.5q41 0 60.5 -27t19 -62.5t-1.5 -69.5l-15 -196q-3 -33 8 -57t39 -24q39 0 109 54v5l26 366h113l-26 -367q0 -24 10.5 -37t27.5 -13q29 0 61 32l22 -21q-36 -37 -77.5 -59.5t-75.5 -22.5 q-63 0 -77 77h-2q-93 -78 -171 -78q-60 0 -82.5 40t-17.5 102zM104 529l-21 32q38 29 82 85.5t69 120.5h124q25 -64 69 -120.5t82 -85.5l-21 -32l-191 139h-2z" />
<glyph unicode="&#xfc;" horiz-adv-x="593" d="M96 126l18 237q1 24 -10 36t-28 12q-31 0 -61 -30l-22 21q36 37 77.5 59.5t75.5 22.5q41 0 60.5 -27t19 -62.5t-1.5 -69.5l-15 -196q-3 -33 8 -57t39 -24q39 0 109 54v5l26 366h113l-26 -367q0 -24 10.5 -37t27.5 -13q29 0 61 32l22 -21q-36 -37 -77.5 -59.5t-75.5 -22.5 q-63 0 -77 77h-2q-93 -78 -171 -78q-60 0 -82.5 40t-17.5 102zM197 577q-31 0 -52 21t-21 52q0 30 21 51.5t52 21.5q30 0 51.5 -21.5t21.5 -51.5q0 -31 -21.5 -52t-51.5 -21zM417 577q-31 0 -52 21t-21 52q0 30 21 51.5t52 21.5q30 0 51.5 -21.5t21.5 -51.5q0 -31 -21.5 -52 t-51.5 -21z" />
<glyph unicode="&#xfd;" horiz-adv-x="618" d="M223 -169q1 -3 1 -8t1 -8q2 -11 10 -11q15 -1 30.5 43t21.5 79l13 74h-108l-61 337q-10 76 -56 76q-34 0 -61 -29l-22 19q74 83 137 83q96 0 121 -146l55 -303h2l48 255q21 102 57 148.5t93 46.5q36 0 58.5 -18.5t22.5 -51.5q0 -23 -17 -42.5t-42 -19.5q-20 0 -37.5 13 t-21.5 33q0 3 -1 8t-1 8q-2 11 -10 11q-15 0 -30.5 -44t-21.5 -78l-69 -366q-19 -101 -56 -148t-93 -47q-36 0 -58.5 18.5t-22.5 51.5q0 23 17 42.5t42 19.5q20 0 37.5 -13t21.5 -33zM190 529l-8 26q38 15 63 34.5t40 50.5t21 54.5t16 72.5h104q0 -60 -25.5 -108.5 t-63 -75.5t-76.5 -41t-71 -13z" />
<glyph unicode="&#xfe;" horiz-adv-x="540" d="M43 -242l64 861q4 49 -33 49l-51 -8l-9 27l106 32q48 20 77.5 4.5t24.5 -75.5l-16 -201h2q48 38 95 38q85 0 141 -71.5t56 -163.5q0 -116 -69 -191t-145 -75q-32 0 -55 9t-52 35h-2l-18 -270h-116zM204 403l-25 -334q36 -33 75 -33q50 0 89 63.5t39 156.5q0 77 -33 126.5 t-76 49.5q-34 0 -69 -29z" />
<glyph unicode="&#xff;" horiz-adv-x="618" d="M223 -169q1 -3 1 -8t1 -8q2 -11 10 -11q15 -1 30.5 43t21.5 79l13 74h-108l-61 337q-10 76 -56 76q-34 0 -61 -29l-22 19q74 83 137 83q96 0 121 -146l55 -303h2l48 255q21 102 57 148.5t93 46.5q36 0 58.5 -18.5t22.5 -51.5q0 -23 -17 -42.5t-42 -19.5q-20 0 -37.5 13 t-21.5 33q0 3 -1 8t-1 8q-2 11 -10 11q-15 0 -30.5 -44t-21.5 -78l-69 -366q-19 -101 -56 -148t-93 -47q-36 0 -58.5 18.5t-22.5 51.5q0 23 17 42.5t42 19.5q20 0 37.5 -13t21.5 -33zM210 577q-31 0 -52 21t-21 52q0 30 21 51.5t52 21.5q30 0 51.5 -21.5t21.5 -51.5 q0 -31 -21.5 -52t-51.5 -21zM430 577q-31 0 -52 21t-21 52q0 30 21 51.5t52 21.5q30 0 51.5 -21.5t21.5 -51.5q0 -31 -21.5 -52t-51.5 -21z" />
<glyph unicode="&#x152;" horiz-adv-x="987" d="M549 64v-2q33 7 95 -2t117.5 -21.5t63.5 -12.5q10 0 10 11q0 6 -6 19.5t-6 23.5q0 23 19 39t41 16q27 0 46.5 -19.5t19.5 -43.5q0 -35 -25.5 -60t-57.5 -25q-43 0 -132.5 19t-141.5 19q-56 0 -140 -20t-135 -20q-122 0 -197 97t-75 248q0 51 9.5 102t32 101.5t55 88.5 t83 61.5t111.5 23.5q47 0 142.5 -19.5t148.5 -19.5q41 0 125 17t129 17q32 0 57.5 -25t25.5 -60q0 -24 -19.5 -43.5t-46.5 -19.5q-22 0 -41 16t-19 39q0 10 6 23.5t6 19.5q0 11 -10 11q-1 0 -116 -22.5t-155 -9.5v-2q5 -7 12.5 -21.5t20 -65.5t11.5 -110l-1 -69h98l6 79 q1 24 23 24h58q24 0 22 -23l-15 -191q-2 -26 -26 -26h-52q-25 0 -23 25l5 79h-99l-9 -110q-8 -91 -51 -156zM165 316q0 -34 2.5 -67.5t12.5 -77t25.5 -75.5t45 -54.5t68.5 -22.5q47 0 82.5 32t55 84t30 102.5t13.5 103.5l1 43q0 43 -6.5 86.5t-22 92.5t-49.5 80t-81 31 q-46 0 -81 -30.5t-54 -81.5t-28.5 -102t-12.5 -106z" />
<glyph unicode="&#x153;" horiz-adv-x="840" d="M436 65h-2q-65 -80 -166 -80q-96 0 -162 70.5t-66 173.5t63 179.5t166 76.5q108 0 175 -86h2q75 86 198 86q59 0 103.5 -31t44.5 -92q0 -129 -290 -186q23 -120 125 -126q56 0 127 53l17 -16q-65 -102 -174 -102q-92 0 -161 80zM498 206q82 20 138 66t56 106 q0 28 -21 51.5t-51 23.5q-61 0 -92 -63.5t-31 -150.5q0 -22 1 -33zM262 22q34 0 58.5 24t37 62t18 73t5.5 70v5q0 82 -27 137.5t-78 55.5q-33 0 -57 -23.5t-36.5 -61t-18 -72.5t-6.5 -70v1q0 -84 26.5 -142.5t77.5 -58.5z" />
<glyph unicode="&#x178;" horiz-adv-x="618" d="M235 64l12 171l-95 329q-15 71 -55 71q-20 0 -48 -23l-21 17q74 79 131 79q74 0 102 -117l71 -251h2q50 205 98 289t122 84q30 0 53.5 -19.5t23.5 -52.5q0 -27 -18 -47t-47 -20q-52 0 -58 60q-1 11 -12 11q-17 0 -62 -130.5t-77 -271.5l-10 -151q-2 -47 32 -47l49 7 l9 -26l-103 -31q-28 -9 -48 -9q-29 0 -41.5 23.5t-9.5 54.5zM223 803q-31 0 -52 21t-21 52q0 30 21 51.5t52 21.5q30 0 51.5 -21.5t21.5 -51.5q0 -31 -21.5 -52t-51.5 -21zM443 803q-31 0 -52 21t-21 52q0 30 21 51.5t52 21.5q30 0 51.5 -21.5t21.5 -51.5q0 -31 -21.5 -52 t-51.5 -21z" />
<glyph unicode="&#x2c6;" horiz-adv-x="587" d="M82 529l-21 32q38 29 82 85.5t69 120.5h124q25 -64 69 -120.5t82 -85.5l-21 -32l-191 139h-2z" />
<glyph unicode="&#x2dc;" horiz-adv-x="609" d="M186 591l-22 -13q-19 41 -19 87t22 76t62 30q39 0 110 -41.5t94 -41.5q40 0 40 63q0 14 -1 21l21 12q16 -38 16 -79q0 -48 -22.5 -79.5t-60.5 -31.5q-34 0 -96 40.5t-94 40.5q-24 0 -38.5 -17.5t-14.5 -44.5q0 -10 3 -22z" />
<glyph unicode="&#x2000;" horiz-adv-x="505" />
<glyph unicode="&#x2001;" horiz-adv-x="1010" />
<glyph unicode="&#x2002;" horiz-adv-x="505" />
<glyph unicode="&#x2003;" horiz-adv-x="1010" />
<glyph unicode="&#x2004;" horiz-adv-x="336" />
<glyph unicode="&#x2005;" horiz-adv-x="252" />
<glyph unicode="&#x2006;" horiz-adv-x="168" />
<glyph unicode="&#x2007;" horiz-adv-x="168" />
<glyph unicode="&#x2008;" horiz-adv-x="126" />
<glyph unicode="&#x2009;" horiz-adv-x="202" />
<glyph unicode="&#x200a;" horiz-adv-x="56" />
<glyph unicode="&#x2010;" horiz-adv-x="413" d="M51 254q0 9 2 20t8 26.5t9 22.5t13 28.5t12 25.5l26 -11q-5 -16 -6 -28q-1 -20 12.5 -28t33.5 -8h128q73 0 73 -49q0 -13 -5.5 -31t-11 -31.5t-15 -34t-12.5 -27.5l-26 11q5 16 6 28q1 20 -12.5 28t-33.5 8h-128q-73 0 -73 50z" />
<glyph unicode="&#x2011;" horiz-adv-x="413" d="M51 254q0 9 2 20t8 26.5t9 22.5t13 28.5t12 25.5l26 -11q-5 -16 -6 -28q-1 -20 12.5 -28t33.5 -8h128q73 0 73 -49q0 -13 -5.5 -31t-11 -31.5t-15 -34t-12.5 -27.5l-26 11q5 16 6 28q1 20 -12.5 28t-33.5 8h-128q-73 0 -73 50z" />
<glyph unicode="&#x2013;" horiz-adv-x="625" d="M13 296l32 81l26 -11q-6 -17 -6 -28q0 -36 46 -36h397q68 0 68 -49q0 -20 -12 -52l-27 -72l-27 11q6 16 6 28q0 36 -79 36h-363q-70 0 -70 51q0 17 9 41z" />
<glyph unicode="&#x2014;" horiz-adv-x="935" d="M13 296l32 81l26 -11q-6 -17 -6 -28q0 -36 46 -36h755q68 0 68 -49q0 -20 -12 -52l-27 -72l-27 11q6 16 6 28q0 36 -79 36h-721q-70 0 -70 51q0 17 9 41z" />
<glyph unicode="&#x2018;" horiz-adv-x="285" d="M179 728l14 -22q-58 -37 -58 -79q0 -27 33 -50q23 -16 23 -49q0 -26 -20 -44.5t-49 -18.5q-30 0 -51 23t-21 59q0 58 31 106t98 75z" />
<glyph unicode="&#x2019;" horiz-adv-x="285" d="M104 465l-14 22q58 37 58 79q0 27 -33 50q-23 16 -23 49q0 26 20 44.5t49 18.5q30 0 51 -23t21 -59q0 -58 -31 -106t-98 -75z" />
<glyph unicode="&#x201a;" horiz-adv-x="285" d="M104 -135l-14 22q58 37 58 79q0 27 -33 50q-23 16 -23 49q0 26 20 44.5t49 18.5q30 0 51 -23t21 -59q0 -58 -31 -106t-98 -75z" />
<glyph unicode="&#x201c;" horiz-adv-x="503" d="M399 728l14 -22q-58 -37 -58 -79q0 -27 33 -50q23 -16 23 -49q0 -26 -20 -44.5t-49 -18.5q-30 0 -51 23t-21 59q0 58 31 106t98 75zM219 728l14 -22q-58 -37 -58 -79q0 -27 33 -50q23 -16 23 -49q0 -26 -20 -44.5t-49 -18.5q-30 0 -51 23t-21 59q0 58 31 106t98 75z" />
<glyph unicode="&#x201d;" horiz-adv-x="473" d="M294 465l-14 22q58 37 58 79q0 27 -33 50q-23 16 -23 49q0 26 20 44.5t49 18.5q30 0 51 -23t21 -59q0 -58 -31 -106t-98 -75zM104 465l-14 22q58 37 58 79q0 27 -33 50q-23 16 -23 49q0 26 20 44.5t49 18.5q30 0 51 -23t21 -59q0 -58 -31 -106t-98 -75z" />
<glyph unicode="&#x201e;" horiz-adv-x="463" d="M244 -135l-14 22q58 37 58 79q0 27 -33 50q-23 16 -23 49q0 26 20 44.5t49 18.5q30 0 51 -23t21 -59q0 -58 -31 -106t-98 -75zM64 -135l-14 22q58 37 58 79q0 27 -33 50q-23 16 -23 49q0 26 20 44.5t49 18.5q30 0 51 -23t21 -59q0 -58 -31 -106t-98 -75z" />
<glyph unicode="&#x2022;" horiz-adv-x="358" d="M154 130q-64 0 -109 45t-45 109q0 63 45 108.5t109 45.5q63 0 108.5 -45.5t45.5 -108.5q0 -64 -45.5 -109t-108.5 -45z" />
<glyph unicode="&#x2026;" horiz-adv-x="983" d="M210 -14q-34 0 -57 23t-23 57q0 33 23 56.5t57 23.5q33 0 56.5 -23.5t23.5 -56.5q0 -34 -23.5 -57t-56.5 -23zM529 -14q-34 0 -57 23t-23 57q0 33 23 56.5t57 23.5q33 0 56.5 -23.5t23.5 -56.5q0 -34 -23.5 -57t-56.5 -23zM853 -14q-34 0 -57 23t-23 57q0 33 23 56.5 t57 23.5q33 0 56.5 -23.5t23.5 -56.5q0 -34 -23.5 -57t-56.5 -23z" />
<glyph unicode="&#x202f;" horiz-adv-x="202" />
<glyph unicode="&#x2039;" horiz-adv-x="402" d="M263 11l-174 173q-22 22 -22 48q0 8 7 20q8 10 16 18l7 8l198 181l24 -11l-130 -216l99 -204z" />
<glyph unicode="&#x203a;" horiz-adv-x="407" d="M113 11l-23 17l128 204l-100 216l26 11l173 -181q19 -20 19 -46q0 -28 -25 -48z" />
<glyph unicode="&#x205f;" horiz-adv-x="252" />
<glyph unicode="&#x20ac;" d="M56 247h-43q3 28 5 43h33q-1 12 -1 37q0 18 2 54h-39l5 43h40q10 58 31.5 107t55.5 89t85.5 63t115.5 23q84 0 152.5 -48t68.5 -129q0 -28 -17.5 -52t-47.5 -24q-22 0 -42 17.5t-20 44.5q0 33 20 48l8 5q8 5 13 11t5 13q0 21 -30.5 48.5t-87.5 27.5q-86 0 -132.5 -68.5 t-60.5 -175.5h270l-7 -43h-268q-1 -18 -1 -52q0 -26 1 -39h273l-5 -43h-262q16 -82 61 -133.5t116 -51.5q82 0 178 96l22 -15q-100 -155 -229 -155q-111 0 -180.5 70.5t-87.5 188.5z" />
<glyph unicode="&#x2122;" horiz-adv-x="908" d="M618 313h-84l19 284q0 16 -10 16t-18 -25l-49 -154q-9 -29 -13.5 -41t-13.5 -33t-18 -29.5t-24 -16t-33 -7.5q-16 0 -28.5 12.5t-12.5 30.5q0 14 12.5 27t27.5 13q17 0 25 -8.5t10.5 -17t7.5 -8.5q3 0 12 21l88 271q17 58 71 58q68 0 60 -88l-14 -175h1l73 210 q18 53 71 53q30 0 46.5 -22t12.5 -67l-18 -238q-2 -28 20 -28q18 0 31 13l14 -13q-35 -46 -91 -46q-36 0 -51.5 26t-12.5 64q14 169 14 201q0 15 -12 15q-10 0 -19 -25zM159 349l20 274q-36 -11 -59 -11q-27 0 -44.5 14t-17.5 38q0 18 13.5 30.5t31.5 12.5q16 0 27.5 -11 t11.5 -26q0 -4 -3.5 -13t-3.5 -13q0 -7 7 -7q16 0 82 34.5t110 34.5q24 0 42 -14.5t18 -37.5q0 -17 -13.5 -30t-31.5 -13q-16 0 -27.5 11.5t-11.5 26.5q0 5 3 13.5t3 12.5q0 6 -6 6q-12 0 -38 -12l-20 -302q-1 -25 22 -25l20 2l5 -18l-69 -16q-28 -5 -33 -5q-39 0 -38 44z " />
</font>
</defs>
</svg>
